<?xml version="1.0" encoding="UTF-8"?>
<svg version="1.1" xmlns="http://www.w3.org/2000/svg" width="625" height="623">
<path d="M0 0 C206.25 0 412.5 0 625 0 C625 205.59 625 411.18 625 623 C418.75 623 212.5 623 0 623 C0 417.41 0 211.82 0 0 Z " fill="#000000" transform="translate(0,0)"/>
<path d="M0 0 C1.57741757 2.88087779 2.42807955 5.46288302 3.04296875 8.68359375 C3.22601563 9.60100342 3.4090625 10.51841309 3.59765625 11.46362305 C3.79230469 12.44500244 3.98695313 13.42638184 4.1875 14.4375 C7.4627224 30.19077056 12.45115782 45.29993937 19 60 C19.30164063 60.72316406 19.60328125 61.44632813 19.9140625 62.19140625 C22.28040181 67.7780247 25.11918819 73.09131931 28.00708008 78.42114258 C29.72190877 81.58642879 31.38538732 84.76274174 32.96875 87.99609375 C39.41309673 100.95844585 48.1163246 112.63241253 57 124 C57.74894531 124.96421875 58.49789063 125.9284375 59.26953125 126.921875 C76.94880275 149.09476467 97.60145198 167.47259981 121.31884766 182.89794922 C122.98070223 183.98734968 124.62528932 185.10294425 126.26953125 186.21875 C128.80775572 187.87458742 131.1910566 188.90763312 134 190 C134.66 190.66 135.32 191.32 136 192 C137.65421716 192.69698481 139.32411852 193.35684879 141 194 C143.4863949 195.13266068 145.96460659 196.27625095 148.4375 197.4375 C149.08009766 197.73720703 149.72269531 198.03691406 150.38476562 198.34570312 C153.36329428 199.73971501 156.31286136 201.15982315 159.2421875 202.65625 C162.41317363 204.20131973 165.61189793 205.04110319 169 206 C169.99 206.66 170.98 207.32 172 208 C173.93122283 208.5121134 175.86448786 209.01857193 177.81005859 209.47314453 C179.91501242 209.97955371 181.97728101 210.56189436 184.05078125 211.18359375 C194.9273231 214.4038234 205.74740234 216.58087479 217 218 C217.70302246 218.09788818 218.40604492 218.19577637 219.13037109 218.29663086 C227.92296128 219.37275304 236.78362411 219.10844949 245.625 219.0625 C247.31380076 219.05747477 249.00260296 219.05291368 250.69140625 219.04882812 C254.79430711 219.03790399 258.89713727 219.0206958 263 219 C259.20073648 223.50394238 255.30971007 227.88108352 251.23266602 232.13476562 C250.69017715 232.7031012 250.14768829 233.27143677 249.58876038 233.85699463 C244.62664261 239.0430847 239.61967442 244.18550985 234.59761143 249.31351471 C231.23601429 252.74751821 227.89159188 256.19521082 224.58227539 259.6796875 C221.36228119 263.06921369 218.10409674 266.41735086 214.81608391 269.7408905 C213.57769096 271.00615746 212.35321307 272.28521292 211.14392281 273.57832336 C201.21821388 284.16079368 201.21821388 284.16079368 194.94328308 284.55316162 C191.20880579 284.45891596 187.64686378 283.80422727 184 283 C182.59994738 282.80087463 181.19780816 282.61506472 179.79296875 282.453125 C177.91544922 282.22882813 177.91544922 282.22882813 176 282 C151.31099502 280.79768846 127.64352053 283.91404781 104.35546875 292.265625 C102 293 102 293 99 293 C99 293.66 99 294.32 99 295 C98.23816406 295.30292969 97.47632813 295.60585938 96.69140625 295.91796875 C85.21383666 300.57491022 73.9283171 306.32318526 64.296875 314.21484375 C62 316 62 316 60 316 C60 316.66 60 317.32 60 318 C58.5390625 319.5078125 58.5390625 319.5078125 56.625 321.125 C55.99851562 321.66382813 55.37203125 322.20265625 54.7265625 322.7578125 C53 324 53 324 51 324 C51 324.66 51 325.32 51 326 C50.319375 326.53625 49.63875 327.0725 48.9375 327.625 C39.93982656 334.8997147 32.83811393 345.09139493 27.26171875 355.12890625 C26.84535156 355.74636719 26.42898438 356.36382812 26 357 C25.34 357 24.68 357 24 357 C23.61714844 358.02673828 23.61714844 358.02673828 23.2265625 359.07421875 C22.09095289 361.78304549 20.7776794 364.32460744 19.38574219 366.90820312 C10.18642926 384.24024197 4.72537068 403.79444822 1 423 C0.34 422.67 -0.32 422.34 -1 422 C-1.57495117 420.18432617 -1.57495117 420.18432617 -2.04296875 417.79296875 C-2.22577393 416.90609375 -2.4085791 416.01921875 -2.59692383 415.10546875 C-2.79181396 414.14253906 -2.9867041 413.17960937 -3.1875 412.1875 C-6.50249197 396.86175816 -10.8917912 382.42421617 -19.203125 369.04296875 C-21.12314451 365.79145746 -22.52816446 362.4738484 -24 359 C-32.84286213 343.02037143 -45.10705869 328.98918024 -59.83544922 318.27246094 C-61.2568923 317.22534957 -62.63321242 316.11751257 -64 315 C-64 314.34 -64 313.68 -64 313 C-64.70511719 312.74476563 -65.41023437 312.48953125 -66.13671875 312.2265625 C-69.27302183 310.88304385 -71.94474656 309.22302596 -74.8125 307.375 C-81.65370253 303.05424051 -88.79200845 299.46178618 -96.07080078 295.94335938 C-98.1049336 294.9486885 -100.11983264 293.91975529 -102.13671875 292.890625 C-114.82375309 286.55555664 -129.13163982 285.05703562 -143 283 C-144.27617187 282.80019531 -145.55234375 282.60039062 -146.8671875 282.39453125 C-152.81772633 281.68444126 -158.83001973 281.85601804 -164.8125 281.875 C-166.01970703 281.87113281 -167.22691406 281.86726563 -168.47070312 281.86328125 C-180.90254273 281.64556924 -180.90254273 281.64556924 -193 284 C-197.13160121 284.42401071 -199.23828527 284.52478959 -202.70632935 282.13545227 C-203.56394867 281.26228867 -204.42156799 280.38912506 -205.30517578 279.48950195 C-205.78584503 279.00985489 -206.26651428 278.53020782 -206.76174927 278.036026 C-208.34010916 276.45280632 -209.89223595 274.84627765 -211.4453125 273.23828125 C-212.54280042 272.12772144 -213.64185618 271.01870903 -214.74240112 269.91117859 C-217.63313692 266.99375999 -220.50226118 264.05596202 -223.36730957 261.11334229 C-226.27520578 258.1340563 -229.20278115 255.17425564 -232.12890625 252.21289062 C-237.28437089 246.99050662 -242.42220166 241.75131811 -247.54763794 236.49946594 C-249.24927545 234.76514414 -250.96456317 233.04415147 -252.69039917 231.33390808 C-254.99153414 229.00855496 -256.95796598 226.55254253 -259 224 C-260.65677573 222.32350075 -262.32233259 220.65559283 -264 219 C-262.31934448 219.03927612 -262.31934448 219.03927612 -260.60473633 219.0793457 C-237.50338965 219.57056605 -215.59524981 219.3917419 -193 214 C-191.78497803 213.71962891 -191.78497803 213.71962891 -190.54541016 213.43359375 C-157.27216565 205.50614966 -124.45085974 187.4389049 -98.2265625 165.69921875 C-96.20764155 164.15846329 -94.3086068 163.03834598 -92 162 C-92 161.34 -92 160.68 -92 160 C-90.38281689 158.5671282 -88.70376628 157.20375251 -87 155.875 C-81.41171227 151.40724297 -76.42504154 146.60389488 -71.50390625 141.42578125 C-69.30753435 139.15120026 -68.0671197 138.02237323 -65 137 C-64.71125 136.2575 -64.4225 135.515 -64.125 134.75 C-62.72208911 131.32066227 -60.69962474 129.49715289 -58 127 C-55.76345316 125.02403558 -55.76345316 125.02403558 -54.6875 121.75 C-52.6160999 116.73283997 -49.21290299 113.1564889 -45.3125 109.4375 C-42.91309554 106.908398 -42.24225504 105.19572481 -41 102 C-40.13782757 100.45983439 -39.23997454 98.93924644 -38.3125 97.4375 C-35.3471162 92.58241083 -32.47038869 87.68119799 -29.61328125 82.76171875 C-28.57297559 80.98085651 -27.51060845 79.2126126 -26.421875 77.4609375 C-25.00074758 75.00129389 -23.94966632 72.58880207 -22.9375 69.9375 C-21.7599226 66.86823199 -20.51633105 63.91809487 -19 61 C-18.34 61 -17.68 61 -17 61 C-16.9175 60.236875 -16.835 59.47375 -16.75 58.6875 C-16.12511223 55.61513513 -15.34103739 53.04176528 -14.25 50.125 C-9.34258175 36.88556229 -5.89947088 23.68365173 -2.96728516 9.87695312 C-2.7254248 8.74322266 -2.48356445 7.60949219 -2.234375 6.44140625 C-1.91291504 4.90528687 -1.91291504 4.90528687 -1.58496094 3.33813477 C-1 1 -1 1 0 0 Z " fill="#0085C6" transform="translate(315,86)"/>
<path d="M0 0 C0 2.62113708 -0.31292445 4.50935112 -1 7 C-1.639375 7.103125 -2.27875 7.20625 -2.9375 7.3125 C-3.618125 7.539375 -4.29875 7.76625 -5 8 C-5.33 8.99 -5.66 9.98 -6 11 C-7.32 11 -8.64 11 -10 11 C-10.09023437 11.5671875 -10.18046875 12.134375 -10.2734375 12.71875 C-12.09252998 18.43030919 -17.64609026 23.53292386 -22.8125 26.375 C-24.3903125 27.179375 -24.3903125 27.179375 -26 28 C-27.0173873 28.98230498 -28.02596117 29.97469597 -29 31 C-29.66 31 -30.32 31 -31 31 C-31.33 31.99 -31.66 32.98 -32 34 C-33.85546875 35.2109375 -33.85546875 35.2109375 -36.1875 36.375 C-39.18629592 37.94330848 -41.73867525 39.48128365 -44.25 41.75 C-47.00980506 44.00802232 -48.5043433 44.6915597 -52 45 C-52.33 46.32 -52.66 47.64 -53 49 C-54.10988281 48.91492188 -54.10988281 48.91492188 -55.2421875 48.828125 C-58.46568199 49.02902267 -59.62307906 49.76808616 -62.125 51.75 C-62.78757812 52.26046875 -63.45015625 52.7709375 -64.1328125 53.296875 C-66.08728277 54.96740745 -66.08728277 54.96740745 -67.6171875 57.203125 C-68.07351562 57.79609375 -68.52984375 58.3890625 -69 59 C-69.66 59 -70.32 59 -71 59 C-71 58.34 -71 57.68 -71 57 C-71.556875 57.28875 -72.11375 57.5775 -72.6875 57.875 C-75 59 -75 59 -77.625 60 C-80.13076767 60.87923641 -80.13076767 60.87923641 -82 63 C-84.1015625 63.52734375 -84.1015625 63.52734375 -86.625 63.9375 C-92.22149687 64.97119639 -97.50328124 66.30378899 -102.25390625 69.53125 C-105.732375 71.39171124 -108.71176662 71.66500193 -112.625 72.0625 C-118.15608728 72.5454278 -118.15608728 72.5454278 -123 75 C-123.33 74.67 -123.66 74.34 -124 74 C-127.51745287 74.25248627 -127.51745287 74.25248627 -131 75 C-131.33 75.66 -131.66 76.32 -132 77 C-134.64 76.67 -137.28 76.34 -140 76 C-140 76.66 -140 77.32 -140 78 C-141.32 78 -142.64 78 -144 78 C-144.33 78.66 -144.66 79.32 -145 80 C-145.64066406 79.855625 -146.28132813 79.71125 -146.94140625 79.5625 C-155.56846919 77.40620692 -155.56846919 77.40620692 -164 79 C-166.37402501 79.07116382 -168.75000677 79.08409085 -171.125 79.0625 C-172.40632813 79.05347656 -173.68765625 79.04445313 -175.0078125 79.03515625 C-175.99523437 79.02355469 -176.98265625 79.01195312 -178 79 C-177.67 81.31 -177.34 83.62 -177 86 C-176.34 86 -175.68 86 -175 86 C-174.67 87.32 -174.34 88.64 -174 90 C-172.02 90.33 -170.04 90.66 -168 91 C-167.67 92.98 -167.34 94.96 -167 97 C-166.46375 97.061875 -165.9275 97.12375 -165.375 97.1875 C-161.47007398 98.52339574 -157.8683015 101.26339701 -156 105 C-155.34 105.2475 -154.68 105.495 -154 105.75 C-152 107 -152 107 -151.25 110.125 C-151.1675 111.07375 -151.085 112.0225 -151 113 C-150.13375 113.0928125 -150.13375 113.0928125 -149.25 113.1875 C-147 114 -147 114 -145.0625 116.4375 C-142.78009285 119.27321798 -141.29164927 119.70066476 -138 121 C-136.23605791 123.60391451 -136 124.80780296 -136 128 C-135.01 128 -134.02 128 -133 128 C-132.773125 128.78375 -132.54625 129.5675 -132.3125 130.375 C-131.24436028 133.1376793 -131.24436028 133.1376793 -128.8125 134.1875 C-127.884375 134.455625 -126.95625 134.72375 -126 135 C-124.80375 135.391875 -123.6075 135.78375 -122.375 136.1875 C-119.0364734 137.30631729 -119.0364734 137.30631729 -116 136 C-113.45163084 135.7548481 -110.92992833 135.57081727 -108.375 135.4375 C-107.5811792 135.3950415 -106.7873584 135.35258301 -105.96948242 135.30883789 C-91.99782865 134.66984719 -77.9821388 134.91865757 -64 135 C-64 135.66 -64 136.32 -64 137 C-60.7 137 -57.4 137 -54 137 C-54.33 136.01 -54.66 135.02 -55 134 C-52 135 -52 135 -51 137 C-49.11736119 137.90343684 -49.11736119 137.90343684 -46.9375 138.625 C-46.20402344 138.88539063 -45.47054687 139.14578125 -44.71484375 139.4140625 C-44.14894531 139.60742188 -43.58304688 139.80078125 -43 140 C-43 140.99 -43 141.98 -43 143 C-43.69480469 142.89042969 -44.38960937 142.78085937 -45.10546875 142.66796875 C-47.34257767 142.31921793 -49.581056 141.97921582 -51.8203125 141.64453125 C-54.74021652 141.20465143 -57.64695363 140.71310128 -60.5546875 140.19921875 C-78.26928951 137.20825845 -101.6375902 134.21253007 -119 140 C-123.13160121 140.42401071 -125.23828527 140.52478959 -128.70632935 138.13545227 C-129.99275833 136.82570686 -129.99275833 136.82570686 -131.30517578 135.48950195 C-132.02617966 134.77003136 -132.02617966 134.77003136 -132.76174927 134.036026 C-134.34010916 132.45280632 -135.89223595 130.84627765 -137.4453125 129.23828125 C-138.54280042 128.12772144 -139.64185618 127.01870903 -140.74240112 125.91117859 C-143.63313692 122.99375999 -146.50226118 120.05596202 -149.36730957 117.11334229 C-152.27520578 114.1340563 -155.20278115 111.17425564 -158.12890625 108.21289062 C-163.28437089 102.99050662 -168.42220166 97.75131811 -173.54763794 92.49946594 C-175.24927545 90.76514414 -176.96456317 89.04415147 -178.69039917 87.33390808 C-180.99153414 85.00855496 -182.95796598 82.55254253 -185 80 C-186.65677573 78.32350075 -188.32233259 76.65559283 -190 75 C-188.31934448 75.03927612 -188.31934448 75.03927612 -186.60473633 75.0793457 C-163.50338965 75.57056605 -141.59524981 75.3917419 -119 70 C-118.18998535 69.81308594 -117.3799707 69.62617188 -116.54541016 69.43359375 C-83.27216565 61.50614966 -50.45085974 43.4389049 -24.2265625 21.69921875 C-22.20764155 20.15846329 -20.3086068 19.03834598 -18 18 C-18 17.34 -18 16.68 -18 16 C-16.3623728 14.54597658 -14.66265804 13.16151322 -12.9375 11.8125 C-8.31628688 8.12269417 -4.05293181 4.30191738 0 0 Z " fill="#0A3B6F" transform="translate(241,230)"/>
<path d="M0 0 C1.33402882 0.11734513 2.6672014 0.24442176 4 0.375 C5.11375 0.47941406 5.11375 0.47941406 6.25 0.5859375 C9.89991037 1.13549787 13.43127393 2.0767843 17 3 C41.3785548 9.09316692 65.0108665 9.26409132 90 9 C86.10023279 13.66874537 82.04785356 18.09127809 77.7265625 22.37109375 C77.15795502 22.93828629 76.58934753 23.50547882 76.00350952 24.08985901 C74.21303764 25.87479913 72.41909516 27.65620256 70.625 29.4375 C69.39950677 30.65796939 68.17424428 31.87867053 66.94921875 33.09960938 C63.96880226 36.06908756 60.98527106 39.03540257 58 42 C57.01 41.67 56.02 41.34 55 41 C55.66 41 56.32 41 57 41 C56.505 39.02 56.505 39.02 56 37 C55.401875 37.78375 54.80375 38.5675 54.1875 39.375 C52 42 52 42 49 44 C48.01 44 47.02 44 46 44 C46.33 43.01 46.66 42.02 47 41 C47.61875 40.855625 48.2375 40.71125 48.875 40.5625 C51.81869848 39.7832857 52.45937784 38.59104635 54 36 C54.72351427 34.01985568 55.40265389 32.02178685 56 30 C57.32 30.33 58.64 30.66 60 31 C59.67 32.65 59.34 34.3 59 36 C59.99 36 60.98 36 62 36 C62.268125 35.236875 62.53625 34.47375 62.8125 33.6875 C63.94424112 31.12619116 64.91223401 29.80307062 67 28 C65.35 27.34 63.7 26.68 62 26 C62.92961422 24.84775972 63.8690125 23.70340824 64.8125 22.5625 C65.33457031 21.92441406 65.85664062 21.28632813 66.39453125 20.62890625 C68 19 68 19 71 18 C70.505 15.03 70.505 15.03 70 12 C66.53058454 12.45822468 63.32604951 12.89131683 60 14 C60 13.34 60 12.68 60 12 C59.01 12.66 58.02 13.32 57 14 C56.01 14 55.02 14 54 14 C53.505 13.01 53.505 13.01 53 12 C52.67 12.33 52.34 12.66 52 13 C50.19188816 13.20896317 48.37783968 13.36780361 46.5625 13.5 C42.63565085 13.71419183 42.63565085 13.71419183 39 15 C38.70222656 13.80697266 38.70222656 13.80697266 38.3984375 12.58984375 C37.22121856 9.70996726 37.22121856 9.70996726 34.1015625 9.00390625 C32.95429687 8.85824219 31.80703125 8.71257812 30.625 8.5625 C29.48289062 8.39878906 28.34078125 8.23507812 27.1640625 8.06640625 C23.93221565 7.99857737 22.71956887 8.43473703 20 10 C17.25 9.625 17.25 9.625 15 9 C14.67 8.01 14.34 7.02 14 6 C12.68 6 11.36 6 10 6 C7 6 4 6 1 6 C-0.0625 4.125 -0.0625 4.125 -1 2 C-0.67 1.34 -0.34 0.68 0 0 Z " fill="#0E9FD4" transform="translate(488,296)"/>
<path d="M0 0 C1.99954746 -0.04254356 4.00041636 -0.04080783 6 0 C6.33 0.33 6.66 0.66 7 1 C8.11375 1.144375 9.2275 1.28875 10.375 1.4375 C14 2 14 2 17 4 C18.50834207 4.47879482 20.03152272 4.91193933 21.5625 5.3125 C26.93284619 6.87621845 32.41410627 8.72965559 37 12 C37.77734375 14.16015625 37.77734375 14.16015625 38 16 C38.721875 15.9175 39.44375 15.835 40.1875 15.75 C43.8541793 16.07592705 45.26553619 17.62533406 48 20 C48.99 20.33 49.98 20.66 51 21 C51 21.66 51 22.32 51 23 C53.07493094 24.11157015 54.79435726 24.96371011 57.125 25.375 C59 26 59 26 60 27.875 C60.33 28.57625 60.66 29.2775 61 30 C61.70125 30.515625 62.4025 31.03125 63.125 31.5625 C63.74375 32.036875 64.3625 32.51125 65 33 C65 33.99 65 34.98 65 36 C65.70125 36.2475 66.4025 36.495 67.125 36.75 C73.31802188 39.44261821 76.14897448 41.90917274 79 48 C80.30915279 49.03145371 81.64082143 50.03542166 83 51 C83.69748583 52.31747324 84.36959957 53.64914193 85 55 C85.66 55.33 86.32 55.66 87 56 C87 56.66 87 57.32 87 58 C88.485 58.495 88.485 58.495 90 59 C90.495 61.475 90.495 61.475 91 64 C91.66 64 92.32 64 93 64 C95 67 95 67 95.5 69.625 C95.665 70.40875 95.83 71.1925 96 72 C96.66 72.33 97.32 72.66 98 73 C99.09745357 75.80805935 99.98803838 78.65877646 100.90234375 81.53125 C101.26457031 82.3459375 101.62679687 83.160625 102 84 C103.485 84.495 103.485 84.495 105 85 C105.6953125 87.03125 105.6953125 87.03125 106.125 89.5 C106.47887416 92.53930366 106.47887416 92.53930366 108 95 C108.04080783 96.99958364 108.04254356 99.00045254 108 101 C105.80780549 98.80780549 105.29027033 97.38355636 104.25 94.5 C102.41797085 89.74495804 100.05958371 85.61006695 97.3671875 81.296875 C96 79 96 79 94.5625 75.5625 C86.87073818 58.02528306 72.48189778 42.41771866 57.16455078 31.27246094 C55.7431077 30.22534957 54.36678758 29.11751257 53 28 C53 27.34 53 26.68 53 26 C52.29488281 25.74476563 51.58976562 25.48953125 50.86328125 25.2265625 C47.72697817 23.88304385 45.05525344 22.22302596 42.1875 20.375 C35.34639713 16.05430345 28.2090544 12.45684785 20.92724609 8.94433594 C19.5943404 8.29122228 18.26952084 7.62143941 16.95166016 6.93847656 C13.02111197 4.90649604 9.31854401 3.329636 5 2.25 C4.05125 2.00765625 3.1025 1.7653125 2.125 1.515625 C1.42375 1.34546875 0.7225 1.1753125 0 1 C0 0.67 0 0.34 0 0 Z " fill="#096394" transform="translate(198,373)"/>
<path d="M0 0 C0 2.62113708 -0.31292445 4.50935112 -1 7 C-1.639375 7.103125 -2.27875 7.20625 -2.9375 7.3125 C-3.618125 7.539375 -4.29875 7.76625 -5 8 C-5.33 8.99 -5.66 9.98 -6 11 C-7.32 11 -8.64 11 -10 11 C-10.09023437 11.5671875 -10.18046875 12.134375 -10.2734375 12.71875 C-12.09252998 18.43030919 -17.64609026 23.53292386 -22.8125 26.375 C-23.864375 26.91125 -24.91625 27.4475 -26 28 C-27.0173873 28.98230498 -28.02596117 29.97469597 -29 31 C-29.66 31 -30.32 31 -31 31 C-31.33 31.99 -31.66 32.98 -32 34 C-33.85546875 35.2109375 -33.85546875 35.2109375 -36.1875 36.375 C-39.18629592 37.94330848 -41.73867525 39.48128365 -44.25 41.75 C-47.00980506 44.00802232 -48.5043433 44.6915597 -52 45 C-52.33 46.32 -52.66 47.64 -53 49 C-54.10988281 48.91492188 -54.10988281 48.91492188 -55.2421875 48.828125 C-58.46568199 49.02902267 -59.62307906 49.76808616 -62.125 51.75 C-62.78757813 52.26046875 -63.45015625 52.7709375 -64.1328125 53.296875 C-66.08728277 54.96740745 -66.08728277 54.96740745 -67.6171875 57.203125 C-68.07351562 57.79609375 -68.52984375 58.3890625 -69 59 C-69.66 59 -70.32 59 -71 59 C-71 58.34 -71 57.68 -71 57 C-71.556875 57.28875 -72.11375 57.5775 -72.6875 57.875 C-75 59 -75 59 -77.625 60 C-80.13076767 60.87923641 -80.13076767 60.87923641 -82 63 C-84.68839385 63.26991906 -87.29141936 63.08737357 -90 63 C-87.14650936 59.57581123 -84.81507529 57.74481132 -80.625 56.1875 C-60.3901234 48.66657242 -40.74036688 35.38900121 -24.2265625 21.69921875 C-22.20764155 20.15846329 -20.3086068 19.03834598 -18 18 C-18 17.34 -18 16.68 -18 16 C-16.3623728 14.54597658 -14.66265804 13.16151322 -12.9375 11.8125 C-8.31628688 8.12269417 -4.05293181 4.30191738 0 0 Z " fill="#085286" transform="translate(241,230)"/>
<path d="M0 0 C0.66 0.33 1.32 0.66 2 1 C1.30031919 7.10464663 -4.79950709 11.75872357 -8.87768555 15.98291016 C-9.99181085 17.15144211 -11.08870907 18.33666986 -12.16674805 19.53857422 C-21.55824703 29.99922372 -21.55824703 29.99922372 -28.23388672 30.79882812 C-33.92162834 31.01779874 -39.45493664 30.22261755 -45 29 C-45 28.34 -45 27.68 -45 27 C-45.66 26.67 -46.32 26.34 -47 26 C-46.01 26 -45.02 26 -44 26 C-44 25.34 -44 24.68 -44 24 C-42.02 24 -40.04 24 -38 24 C-37.67 24.66 -37.34 25.32 -37 26 C-36.34 26 -35.68 26 -35 26 C-34.67 25.34 -34.34 24.68 -34 24 C-32.35 24 -30.7 24 -29 24 C-28.34 22.68 -27.68 21.36 -27 20 C-26.67 20.66 -26.34 21.32 -26 22 C-24.35 21.34 -22.7 20.68 -21 20 C-21 17.36 -21 14.72 -21 12 C-20.34 12 -19.68 12 -19 12 C-18.67 11.01 -18.34 10.02 -18 9 C-17.34 9 -16.68 9 -16 9 C-16 8.34 -16 7.68 -16 7 C-13.69 6.34 -11.38 5.68 -9 5 C-9 5.99 -9 6.98 -9 8 C-8.505 8.99 -8.505 8.99 -8 10 C-7.21625 9.030625 -6.4325 8.06125 -5.625 7.0625 C-4.08711295 5.16037654 -3.20740087 4.10370043 -1 3 C-0.67 2.01 -0.34 1.02 0 0 Z " fill="#02B0ED" transform="translate(540,338)"/>
<path d="M0 0 C-1.48144302 5.02953999 -4.44896744 7.83940169 -8.1015625 11.39453125 C-8.69802582 11.98674973 -9.29448914 12.5789682 -9.9090271 13.18913269 C-11.80740103 15.07077354 -13.71595933 16.94168823 -15.625 18.8125 C-16.91735373 20.08980001 -18.20902839 21.36778747 -19.5 22.64648438 C-22.65885529 25.77234164 -25.8268834 28.88862334 -29 32 C-29.99 31.67 -30.98 31.34 -32 31 C-31.34 31 -30.68 31 -30 31 C-30.33 29.68 -30.66 28.36 -31 27 C-31.598125 27.78375 -32.19625 28.5675 -32.8125 29.375 C-35 32 -35 32 -38 34 C-38.99 34 -39.98 34 -41 34 C-40.67 33.01 -40.34 32.02 -40 31 C-39.38125 30.855625 -38.7625 30.71125 -38.125 30.5625 C-35.18130152 29.7832857 -34.54062216 28.59104635 -33 26 C-32.27648573 24.01985568 -31.59734611 22.02178685 -31 20 C-29.68 20.33 -28.36 20.66 -27 21 C-27.33 22.65 -27.66 24.3 -28 26 C-27.01 26 -26.02 26 -25 26 C-24.731875 25.236875 -24.46375 24.47375 -24.1875 23.6875 C-23.05575888 21.12619116 -22.08776599 19.80307062 -20 18 C-21.65 17.34 -23.3 16.68 -25 16 C-24.07038578 14.84775972 -23.1309875 13.70340824 -22.1875 12.5625 C-21.66542969 11.92441406 -21.14335938 11.28632813 -20.60546875 10.62890625 C-19 9 -19 9 -16 8 C-16.33 6.35 -16.66 4.7 -17 3 C-5.47835991 -0.44419134 -5.47835991 -0.44419134 0 0 Z " fill="#03B9F3" transform="translate(575,306)"/>
<path d="M0 0 C0.55429687 0.22816406 1.10859375 0.45632813 1.6796875 0.69140625 C2.40414063 0.97886719 3.12859375 1.26632812 3.875 1.5625 C4.95394531 1.99755859 4.95394531 1.99755859 6.0546875 2.44140625 C8.05649404 3.2537118 8.05649404 3.2537118 10 2 C11.43794531 1.84924474 12.88187562 1.75351129 14.32617188 1.68701172 C15.22049927 1.64381805 16.11482666 1.60062439 17.03625488 1.55612183 C18.48783997 1.49353683 18.48783997 1.49353683 19.96875 1.4296875 C20.95999878 1.38433868 21.95124756 1.33898987 22.97253418 1.29226685 C25.07061814 1.19761815 27.1688086 1.10530602 29.26708984 1.01513672 C32.48703344 0.87556206 35.70636264 0.72536748 38.92578125 0.57421875 C40.960909 0.4837317 42.99606453 0.39386695 45.03125 0.3046875 C45.99897339 0.25891571 46.96669678 0.21314392 47.96374512 0.16598511 C49.30523621 0.11065109 49.30523621 0.11065109 50.67382812 0.05419922 C51.46277466 0.01946503 52.25172119 -0.01526917 53.0645752 -0.05105591 C55 0 55 0 57 1 C57 1.66 57 2.32 57 3 C63.6 3.33 70.2 3.66 77 4 C76.67 4.66 76.34 5.32 76 6 C73.6664473 5.85719144 71.33320412 5.71081563 69 5.5625 C67.700625 5.48128906 66.40125 5.40007812 65.0625 5.31640625 C62.41777276 5.13361869 59.86463916 4.84352022 57.23046875 4.48046875 C42.12128827 2.52241603 26.67974154 3.81622133 11.7265625 6.265625 C5.5112437 7.28006193 -0.71116937 7.69348557 -7 8 C-5 6 -3 4 -1 2 C-0.67 1.34 -0.34 0.68 0 0 Z " fill="#1298C8" transform="translate(438,364)"/>
<path d="M0 0 C3.52888584 6.44985438 4.31545811 13.74446344 4 21 C2.35 20.67 0.7 20.34 -1 20 C-1.12375 20.7425 -1.2475 21.485 -1.375 22.25 C-1.95486701 24.80141485 -2.73708739 26.7267573 -4 29 C-4.66 29 -5.32 29 -6 29 C-5.97679687 29.65226562 -5.95359375 30.30453125 -5.9296875 30.9765625 C-5.79925594 37.29317678 -6.20058987 42.04896739 -9.5625 47.5625 C-11.05435488 50.09216697 -11.5875699 52.11298928 -12 55 C-12.33 55 -12.66 55 -13 55 C-13.27946783 49.2973456 -12.31094725 44.63686167 -10.6875 39.1875 C-10.34247437 37.98468384 -10.34247437 37.98468384 -9.99047852 36.75756836 C-8.86130463 32.84063466 -7.67292219 28.94721643 -6.4375 25.0625 C-4.64383636 19.2612793 -3.54061292 13.28376617 -2.35717773 7.33422852 C-1.10133905 1.10133905 -1.10133905 1.10133905 0 0 Z " fill="#078ABC" transform="translate(315,86)"/>
<path d="M0 0 C4.72144882 1.99350061 6.56634663 3.55593732 9 8 C9.845625 8.845625 10.69125 9.69125 11.5625 10.5625 C13.74055419 12.74055419 14.73506392 14.27552228 16 17 C16.66 17.33 17.32 17.66 18 18 C18 18.66 18 19.32 18 20 C18.99 20.33 19.98 20.66 21 21 C21.33 22.65 21.66 24.3 22 26 C22.66 26 23.32 26 24 26 C26 29 26 29 26.5 31.625 C26.7475 32.800625 26.7475 32.800625 27 34 C27.66 34.33 28.32 34.66 29 35 C30.09745357 37.80805935 30.98803838 40.65877646 31.90234375 43.53125 C32.44568359 44.75328125 32.44568359 44.75328125 33 46 C33.99 46.33 34.98 46.66 36 47 C36.6953125 49.03125 36.6953125 49.03125 37.125 51.5 C37.47887416 54.53930366 37.47887416 54.53930366 39 57 C39.04080783 58.99958364 39.04254356 61.00045254 39 63 C36.80780549 60.80780549 36.29027033 59.38355636 35.25 56.5 C33.41797085 51.74495804 31.05958371 47.61006695 28.3671875 43.296875 C27 41 27 41 25.5625 37.5625 C22.04236295 29.53658752 16.80322594 22.56530211 11.4375 15.6875 C10.99083984 15.11314209 10.54417969 14.53878418 10.08398438 13.94702148 C7.75965485 11.01912974 5.36948089 8.34851584 2.66015625 5.76953125 C0 3 0 3 0 0 Z " fill="#0C6B9E" transform="translate(267,411)"/>
<path d="M0 0 C3 1 3 1 4 3 C5.88263881 3.90343684 5.88263881 3.90343684 8.0625 4.625 C9.16271484 5.01558594 9.16271484 5.01558594 10.28515625 5.4140625 C10.85105469 5.60742188 11.41695313 5.80078125 12 6 C12 6.99 12 7.98 12 9 C11.30519531 8.89042969 10.61039062 8.78085937 9.89453125 8.66796875 C7.65742233 8.31921793 5.418944 7.97921582 3.1796875 7.64453125 C0.25978348 7.20465143 -2.64695363 6.71310128 -5.5546875 6.19921875 C-23.04247481 3.24655419 -40.91692155 2.89757289 -58.55737305 4.78393555 C-62.38026696 5.12209258 -66.1646114 5.06287522 -70 5 C-70.33 4.01 -70.66 3.02 -71 2 C-68.98177083 2.29296875 -66.96354167 2.5859375 -64.9453125 2.87890625 C-62.91859333 3.1684297 -62.91859333 3.1684297 -61 2 C-58.47179771 1.74934592 -55.97300828 1.56834588 -53.4375 1.4375 C-52.63916748 1.3950415 -51.84083496 1.35258301 -51.01831055 1.30883789 C-37.03007789 0.67236882 -22.9986188 0.91856169 -9 1 C-9 1.66 -9 2.32 -9 3 C-5.7 3 -2.4 3 1 3 C0.505 1.515 0.505 1.515 0 0 Z " fill="#0B4F86" transform="translate(186,364)"/>
<path d="M0 0 C0 2.62113708 -0.31292445 4.50935112 -1 7 C-1.639375 7.103125 -2.27875 7.20625 -2.9375 7.3125 C-3.9584375 7.6528125 -3.9584375 7.6528125 -5 8 C-5.33 8.99 -5.66 9.98 -6 11 C-7.32 11 -8.64 11 -10 11 C-10.09023437 11.5671875 -10.18046875 12.134375 -10.2734375 12.71875 C-12.09252998 18.43030919 -17.64609026 23.53292386 -22.8125 26.375 C-23.864375 26.91125 -24.91625 27.4475 -26 28 C-27.0173873 28.98230498 -28.02596117 29.97469597 -29 31 C-29.66 31 -30.32 31 -31 31 C-31.495 32.485 -31.495 32.485 -32 34 C-34.4375 35.75 -34.4375 35.75 -37 37 C-37.66 36.67 -38.32 36.34 -39 36 C-36.71009239 31.43654126 -33.55304251 28.81368049 -29.5 25.875 C-25.1805111 22.74837386 -25.1805111 22.74837386 -21.21875 19.1953125 C-20 18 -20 18 -18 18 C-18 17.34 -18 16.68 -18 16 C-16.3623728 14.54597658 -14.66265804 13.16151322 -12.9375 11.8125 C-8.31628688 8.12269417 -4.05293181 4.30191738 0 0 Z " fill="#0A6698" transform="translate(241,230)"/>
<path d="M0 0 C0.66 0 1.32 0 2 0 C2.99 2.64 3.98 5.28 5 8 C5.66 7.34 6.32 6.68 7 6 C7.99 6.66 8.98 7.32 10 8 C9 10 8 12 7 14 C7.3191623 16.22624593 7.3191623 16.22624593 7.9375 18.625 C8.22947266 19.85089844 8.22947266 19.85089844 8.52734375 21.1015625 C8.68332031 21.72804688 8.83929688 22.35453125 9 23 C10.94819225 18.92650712 12.19595981 15.33760225 12.9375 10.875 C13.6938523 6.63425549 14.88813912 4.11186088 18 1 C16.62811122 7.40214765 15.07241771 13.74990176 13.47070312 20.09765625 C12.22587787 25.04877253 11.0696231 30.00842555 10 35 C9.34 34.67 8.68 34.34 8 34 C7.36157227 32.00976562 7.36157227 32.00976562 6.81640625 29.40625 C6.61080078 28.4575 6.40519531 27.50875 6.19335938 26.53125 C5.98517578 25.5309375 5.77699219 24.530625 5.5625 23.5 C4.22163663 17.13830123 2.80608951 10.97004168 0.56616211 4.85742188 C0 3 0 3 0 0 Z " fill="#106FA0" transform="translate(306,474)"/>
<path d="M0 0 C-4.65552698 1.05535258 -9.32381389 2.04114055 -14 3 C-14.9880513 3.20517998 -14.9880513 3.20517998 -15.99606323 3.414505 C-28.60639218 5.96863013 -40.78994648 6.36867663 -53.625 6.1875 C-55.51821831 6.17239972 -57.41144851 6.15872092 -59.3046875 6.14648438 C-63.8700943 6.11396215 -68.4349091 6.06248721 -73 6 C-70.525 7.98 -70.525 7.98 -68 10 C-68.33 10.66 -68.66 11.32 -69 12 C-70.98 11.01 -72.96 10.02 -75 9 C-75 7.35 -75 5.7 -75 4 C-73.86159668 4.01571045 -72.72319336 4.0314209 -71.55029297 4.04760742 C-67.26000256 4.10258475 -62.96974214 4.1365924 -58.67919922 4.16479492 C-56.83474463 4.17972913 -54.99032457 4.20008395 -53.14599609 4.22631836 C-41.88365658 4.38231491 -31.9584674 3.7463992 -21 1 C-17.96733199 0.47521361 -14.93339457 0.08852459 -11.875 -0.25 C-11.16085938 -0.34023438 -10.44671875 -0.43046875 -9.7109375 -0.5234375 C-6.2566367 -0.92300215 -3.30867124 -1.2000362 0 0 Z " fill="#000E26" transform="translate(125,300)"/>
<path d="M0 0 C2.10409639 -0.02701408 4.20829178 -0.04640223 6.3125 -0.0625 C7.48425781 -0.07410156 8.65601563 -0.08570313 9.86328125 -0.09765625 C13 0 13 0 16 1 C17.51907624 1.08669529 19.04169001 1.117694 20.56323242 1.11352539 C21.48396042 1.11344986 22.40468842 1.11337433 23.35331726 1.11329651 C24.83938225 1.10555458 24.83938225 1.10555458 26.35546875 1.09765625 C27.37224197 1.0962413 28.3890152 1.09482635 29.43659973 1.09336853 C32.68692964 1.08776707 35.93719088 1.07521432 39.1875 1.0625 C41.38997296 1.05748519 43.59244701 1.05292225 45.79492188 1.04882812 C51.19663804 1.03779717 56.59831412 1.02105762 62 1 C59.3984375 7.8203125 59.3984375 7.8203125 55.8125 9.4375 C54.4203125 9.7159375 54.4203125 9.7159375 53 10 C54.65 8.02 56.3 6.04 58 4 C57.03924561 4.01047363 56.07849121 4.02094727 55.08862305 4.03173828 C22.8923304 4.35192297 22.8923304 4.35192297 11.5625 3.125 C10.82668701 3.04652832 10.09087402 2.96805664 9.33276367 2.88720703 C5.86784459 2.45005415 3.00047595 1.82637666 0 0 Z " fill="#001C33" transform="translate(519,302)"/>
<path d="M0 0 C3.34373475 0.55728913 6.03312999 1.35173889 9 3 C9 3.66 9 4.32 9 5 C10.98 5 12.96 5 15 5 C15 5.99 15 6.98 15 8 C14.34 8.66 13.68 9.32 13 10 C12.01 10 11.02 10 10 10 C9.67 10.66 9.34 11.32 9 12 C8.01 12 7.02 12 6 12 C5.34 11.34 4.68 10.68 4 10 C3.01 11.485 3.01 11.485 2 13 C1.34 13 0.68 13 0 13 C-0.84581867 8.95886635 -1.00084214 6.00336856 0 2 C0 1.34 0 0.68 0 0 Z " fill="#01A9EB" transform="translate(456,283)"/>
<path d="M0 0 C4.16062165 0.5707712 6.88291906 1.94862861 10.375 4.25 C11.32761719 4.87519531 12.28023438 5.50039063 13.26171875 6.14453125 C16.55233697 8.37426542 19.79464231 10.64940436 23 13 C19.90279155 13.87840996 18.09354597 13.99435406 15 13 C15 12.01 15 11.02 15 10 C14.38511719 9.93941406 13.77023437 9.87882812 13.13671875 9.81640625 C12.32847656 9.73261719 11.52023437 9.64882813 10.6875 9.5625 C9.88699219 9.48128906 9.08648437 9.40007812 8.26171875 9.31640625 C6 9 6 9 3 8 C2.34 9.65 1.68 11.3 1 13 C0.34 13 -0.32 13 -1 13 C-1.02708567 11.39592672 -1.04643483 9.7917215 -1.0625 8.1875 C-1.07410156 7.29417969 -1.08570313 6.40085937 -1.09765625 5.48046875 C-1 3 -1 3 0 0 Z " fill="#089ED5" transform="translate(425,264)"/>
<path d="M0 0 C3.4375 0.8125 3.4375 0.8125 7 2 C7.33 2.99 7.66 3.98 8 5 C8.804375 5.309375 9.60875 5.61875 10.4375 5.9375 C13.55283513 7.22922432 13.55606411 8.11212821 15 11 C16.64363134 11.72159424 18.31050386 12.39351421 20 13 C20.33 13.66 20.66 14.32 21 15 C22.98248715 15.71706982 24.98415349 16.38290413 27 17 C27.66 17.33 28.32 17.66 29 18 C29.33 18.99 29.66 19.98 30 21 C32.09194306 22.60207572 32.09194306 22.60207572 34.5625 24.0625 C37.06640625 25.59765625 37.06640625 25.59765625 39 27 C39 27.66 39 28.32 39 29 C34.24710713 27.39429295 30.45335383 24.78095834 26.375 21.9375 C25.66931885 21.44870361 24.9636377 20.95990723 24.23657227 20.45629883 C18.23542733 16.25420064 12.56832881 11.76360355 7 7 C6.26523437 6.38769531 5.53046875 5.77539062 4.7734375 5.14453125 C3.15886319 3.7904759 1.57494522 2.3999513 0 1 C0 0.67 0 0.34 0 0 Z " fill="#01182E" transform="translate(401,242)"/>
<path d="M0 0 C0.99 0.33 1.98 0.66 3 1 C-1.62 5.62 -6.24 10.24 -11 15 C-11.99 14.67 -12.98 14.34 -14 14 C-13.34 14 -12.68 14 -12 14 C-12.33 12.68 -12.66 11.36 -13 10 C-13.8971875 11.175625 -13.8971875 11.175625 -14.8125 12.375 C-17 15 -17 15 -20 17 C-20.99 17 -21.98 17 -23 17 C-22.505 15.515 -22.505 15.515 -22 14 C-21.38125 13.855625 -20.7625 13.71125 -20.125 13.5625 C-17.18130152 12.7832857 -16.54062216 11.59104635 -15 9 C-14.27648573 7.01985568 -13.59734611 5.02178685 -13 3 C-11.68 3.33 -10.36 3.66 -9 4 C-9.33 5.65 -9.66 7.3 -10 9 C-9.01 9 -8.02 9 -7 9 C-6.773125 8.2575 -6.54625 7.515 -6.3125 6.75 C-4.72960669 3.43346164 -3.08697652 1.95759487 0 0 Z " fill="#10A8DB" transform="translate(557,323)"/>
<path d="M0 0 C14.19 0 28.38 0 43 0 C41.68 1.32 40.36 2.64 39 4 C39 3.34 39 2.68 39 2 C37.845 2.144375 36.69 2.28875 35.5 2.4375 C34.76910156 2.52773438 34.03820312 2.61796875 33.28515625 2.7109375 C31.83345865 2.89457104 30.38274965 3.08634504 28.93359375 3.2890625 C24.58312669 3.88501689 20.38366413 4 16 4 C15.01 4.33 14.02 4.66 13 5 C13 4.34 13 3.68 13 3 C12.01 3.66 11.02 4.32 10 5 C9.01 5 8.02 5 7 5 C6.67 3.68 6.34 2.36 6 1 C4.02 1 2.04 1 0 1 C0 0.67 0 0.34 0 0 Z " fill="#12A7DA" transform="translate(535,305)"/>
<path d="M0 0 C0.33 0.66 0.66 1.32 1 2 C0.690625 2.5775 0.38125 3.155 0.0625 3.75 C-1.21350315 6.03741538 -1.21350315 6.03741538 -1 9 C-1 12.20232254 -1.35133238 13.32802145 -3 16 C-4.83984375 17.67578125 -4.83984375 17.67578125 -6.9375 19.3125 C-10.86848863 22.61794252 -12.33489016 25.18968268 -14 30 C-14.66 30.99 -15.32 31.98 -16 33 C-16.66 32.67 -17.32 32.34 -18 32 C-16.71543674 28.58052879 -15.23064027 25.54331068 -13.3125 22.4375 C-10.3471162 17.58241083 -7.47038869 12.68119799 -4.61328125 7.76171875 C-3.09488388 5.16242834 -1.55428642 2.57795543 0 0 Z " fill="#0D70A0" transform="translate(290,161)"/>
<path d="M0 0 C0.55429687 0.22816406 1.10859375 0.45632813 1.6796875 0.69140625 C2.40414063 0.97886719 3.12859375 1.26632812 3.875 1.5625 C4.95394531 1.99755859 4.95394531 1.99755859 6.0546875 2.44140625 C8.05649404 3.2537118 8.05649404 3.2537118 10 2 C12.71760108 1.92818179 15.40859388 1.90700494 18.125 1.9375 C18.87910156 1.94201172 19.63320313 1.94652344 20.41015625 1.95117188 C22.27347127 1.96296501 24.13674555 1.98090058 26 2 C26 2.33 26 2.66 26 3 C24.19402344 3.18175781 24.19402344 3.18175781 22.3515625 3.3671875 C20.77599234 3.53599859 19.20047408 3.70529459 17.625 3.875 C16.8309375 3.95363281 16.036875 4.03226562 15.21875 4.11328125 C10.6406878 4.46476858 10.6406878 4.46476858 7 7 C4.63490639 7.30059943 2.25558119 7.49515012 -0.125 7.625 C-1.40632813 7.69976562 -2.68765625 7.77453125 -4.0078125 7.8515625 C-4.99523437 7.90054687 -5.98265625 7.94953125 -7 8 C-5 6 -3 4 -1 2 C-0.67 1.34 -0.34 0.68 0 0 Z " fill="#05A1D7" transform="translate(438,364)"/>
<path d="M0 0 C1.99954746 -0.04254356 4.00041636 -0.04080783 6 0 C6.33 0.33 6.66 0.66 7 1 C8.11375 1.144375 9.2275 1.28875 10.375 1.4375 C14 2 14 2 17 4 C18.61487337 4.47351372 20.24150969 4.90785119 21.875 5.3125 C26.47457344 6.61805578 28.82807067 8.34747532 32 12 C32.99 12.33 33.98 12.66 35 13 C35 13.66 35 14.32 35 15 C31.91948591 13.81092156 28.8989534 12.5190861 25.890625 11.16015625 C25.13523438 10.81919922 24.37984375 10.47824219 23.6015625 10.12695312 C22.04828734 9.423851 20.49617708 8.71816902 18.9453125 8.00976562 C14.34513128 5.93968408 9.76347065 4.1801456 4.93652344 2.70874023 C3 2 3 2 0 0 Z " fill="#0B5383" transform="translate(198,373)"/>
<path d="M0 0 C1.73443359 0.00676758 1.73443359 0.00676758 3.50390625 0.01367188 C6.33599225 0.02537471 9.16796811 0.04177004 12 0.0625 C12 0.3925 12 0.7225 12 1.0625 C10.9644397 1.092229 10.9644397 1.092229 9.90795898 1.12255859 C6.75078529 1.21838293 3.59422178 1.32782814 0.4375 1.4375 C-0.64853516 1.4684375 -1.73457031 1.499375 -2.85351562 1.53125 C-8.60919765 1.74118369 -13.5387321 2.25618917 -19 4.0625 C-25.62582064 5.15139456 -32.30178844 5.19076363 -39 5.0625 C-39 4.7325 -39 4.4025 -39 4.0625 C-36.16700602 3.58125423 -33.33363343 3.10245391 -30.5 2.625 C-29.70851563 2.49029297 -28.91703125 2.35558594 -28.1015625 2.21679688 C-18.60554628 0.62115481 -9.63729394 -0.07175534 0 0 Z " fill="#012F48" transform="translate(479,366.9375)"/>
<path d="M0 0 C0 0.33 0 0.66 0 1 C-0.69971924 1.02505615 -1.39943848 1.0501123 -2.12036133 1.07592773 C-5.35119418 1.19337867 -8.58183902 1.31541636 -11.8125 1.4375 C-12.91271484 1.47681641 -14.01292969 1.51613281 -15.14648438 1.55664062 C-21.30634134 1.79285933 -27.41846433 2.16103 -33.55078125 2.79492188 C-37.37581802 3.11520007 -41.16375309 3.06288929 -45 3 C-45.33 2.01 -45.66 1.02 -46 0 C-43.98177083 0.29296875 -41.96354167 0.5859375 -39.9453125 0.87890625 C-37.91859333 1.1684297 -37.91859333 1.1684297 -36 0 C-33.5130633 -0.26934332 -31.05734457 -0.4754826 -28.5625 -0.625 C-27.82201416 -0.67003662 -27.08152832 -0.71507324 -26.31860352 -0.76147461 C-17.51674652 -1.20280612 -8.77991564 -0.62644843 0 0 Z " fill="#074B83" transform="translate(161,366)"/>
<path d="M0 0 C0.33 0.66 0.66 1.32 1 2 C1.66 2 2.32 2 3 2 C2.67 4.31 2.34 6.62 2 9 C0.35 9 -1.3 9 -3 9 C-3.33 11.64 -3.66 14.28 -4 17 C-4.99 17.33 -5.98 17.66 -7 18 C-7 15.36 -7 12.72 -7 10 C-6.34 10 -5.68 10 -5 10 C-4.80664062 9.36191406 -4.61328125 8.72382812 -4.4140625 8.06640625 C-4.15367187 7.24011719 -3.89328125 6.41382812 -3.625 5.5625 C-3.36976563 4.73878906 -3.11453125 3.91507812 -2.8515625 3.06640625 C-2 1 -2 1 0 0 Z " fill="#0194D8" transform="translate(316,105)"/>
<path d="M0 0 C0 3.98734393 -1.19683009 6.45583845 -3 10 C-5.625 12.3125 -5.625 12.3125 -8 14 C-8.33 14.66 -8.66 15.32 -9 16 C-10.65 16 -12.3 16 -14 16 C-14.33 16.99 -14.66 17.98 -15 19 C-15.66 18.67 -16.32 18.34 -17 18 C-12.375 13.125 -12.375 13.125 -9 12 C-8.566875 10.88625 -8.566875 10.88625 -8.125 9.75 C-6.72208911 6.32066227 -4.69962474 4.49715289 -2 2 C-1.34 1.34 -0.68 0.68 0 0 Z " fill="#1072A5" transform="translate(259,211)"/>
<path d="M0 0 C0.6875 1.8125 0.6875 1.8125 1 4 C-0.3125 5.5 -0.3125 5.5 -2 7 C-2.433125 8.0209375 -2.433125 8.0209375 -2.875 9.0625 C-4 11 -4 11 -6.5 11.9375 C-9.23958333 12.76041667 -9.23958333 12.76041667 -10.0625 15.5 C-10.5265625 16.7375 -10.5265625 16.7375 -11 18 C-13.125 19.3125 -13.125 19.3125 -15 20 C-13.53238339 15.50542413 -11.02169576 12.24015087 -8 8.6875 C-7.54882812 8.13771484 -7.09765625 7.58792969 -6.6328125 7.02148438 C-5.47111357 5.63810029 -4.24017305 4.31349409 -3 3 C-2.34 3 -1.68 3 -1 3 C-0.67 2.01 -0.34 1.02 0 0 Z " fill="#012742" transform="translate(361,415)"/>
<path d="M0 0 C2.1875 -0.3125 2.1875 -0.3125 5 0 C7.875 2.25 7.875 2.25 10 5 C9.8125 7.3125 9.8125 7.3125 9 9 C6.36 9 3.72 9 1 9 C1.20625 8.071875 1.4125 7.14375 1.625 6.1875 C2.36692966 2.84826598 2.36692966 2.84826598 0 0 Z " fill="#049AD5" transform="translate(391,237)"/>
<path d="M0 0 C3 1.5625 3 1.5625 6 4 C6.375 7.75 6.375 7.75 6 11 C5.01 11.33 4.02 11.66 3 12 C-0.86107457 9.42595029 -0.94319692 7.38979741 -2 3 C-1.34 3 -0.68 3 0 3 C0 2.01 0 1.02 0 0 Z " fill="#0694C8" transform="translate(363,202)"/>
<path d="M0 0 C0.66 0 1.32 0 2 0 C2.99 2.64 3.98 5.28 5 8 C5.66 7.34 6.32 6.68 7 6 C7.99 6.66 8.98 7.32 10 8 C9 10 8 12 7 14 C6.64830932 15.32860925 6.31229724 16.66158328 6 18 C3.40052213 15.40052213 2.9315565 13.07261547 1.875 9.5625 C1.52179688 8.40878906 1.16859375 7.25507813 0.8046875 6.06640625 C0 3 0 3 0 0 Z " fill="#0577B7" transform="translate(306,474)"/>
<path d="M0 0 C0 6.23875389 -4.7909528 10.07605273 -8.8671875 14.328125 C-11.27496408 16.21553961 -12.99349496 16.64382867 -16 17 C-11.01595832 10.96668638 -5.58084697 5.4815829 0 0 Z " fill="#011724" transform="translate(558,325)"/>
<path d="M0 0 C1.07765625 0.11085938 2.1553125 0.22171875 3.265625 0.3359375 C4.08546875 0.43132812 4.9053125 0.52671875 5.75 0.625 C5.42 1.615 5.09 2.605 4.75 3.625 C3.97914063 3.68558594 3.20828125 3.74617188 2.4140625 3.80859375 C1.41117188 3.89238281 0.40828125 3.97617187 -0.625 4.0625 C-2.12160156 4.18431641 -2.12160156 4.18431641 -3.6484375 4.30859375 C-6.22927613 4.47465626 -6.22927613 4.47465626 -8.25 5.625 C-8.91 4.305 -9.57 2.985 -10.25 1.625 C-6.69181064 -0.63773207 -4.12452049 -0.44831744 0 0 Z " fill="#01B8EE" transform="translate(535.25,305.375)"/>
<path d="M0 0 C1.33332095 2.6666419 0.67102033 4.16680303 0 7 C-1.32 7 -2.64 7 -4 7 C-4.061875 7.9075 -4.12375 8.815 -4.1875 9.75 C-5.18446044 13.73784176 -6.64888166 14.76592111 -10 17 C-10.69921875 15.28125 -10.69921875 15.28125 -11 13 C-9.70703125 10.78125 -9.70703125 10.78125 -7.8125 8.5 C-7.20019531 7.7471875 -6.58789062 6.994375 -5.95703125 6.21875 C-4.0487512 4.05527082 -2.06443045 2.01407848 0 0 Z " fill="#096797" transform="translate(271,194)"/>
<path d="M0 0 C0 0.66 0 1.32 0 2 C-1.093125 2.103125 -2.18625 2.20625 -3.3125 2.3125 C-6.89839567 2.62071308 -6.89839567 2.62071308 -8.46484375 4.46875 C-11.98812028 7.98306145 -18.28641143 8.11527273 -23.0625 8.125 C-24.031875 8.08375 -25.00125 8.0425 -26 8 C-22.07751123 5.38500749 -18.03754745 4.27199017 -13.5625 2.875 C-12.70333984 2.59785156 -11.84417969 2.32070313 -10.95898438 2.03515625 C-10.12818359 1.77347656 -9.29738281 1.51179688 -8.44140625 1.2421875 C-7.68545166 1.0035498 -6.92949707 0.76491211 -6.15063477 0.51904297 C-4 0 -4 0 0 0 Z " fill="#01182F" transform="translate(440,372)"/>
<path d="M0 0 C0.99 0.66 1.98 1.32 3 2 C3.33 1.67 3.66 1.34 4 1 C5.99958364 0.95919217 8.00045254 0.95745644 10 1 C10 1.66 10 2.32 10 3 C7.09399739 4.25664978 5.20395416 5 2 5 C1.67 5.99 1.34 6.98 1 8 C0.01 8 -0.98 8 -2 8 C-2.33 5.69 -2.66 3.38 -3 1 C-2.01 0.67 -1.02 0.34 0 0 Z " fill="#019ADD" transform="translate(408,373)"/>
<path d="M0 0 C1.62477811 2.96162086 2.51695886 5.69266927 3.1875 9 C3.36667969 9.845625 3.54585938 10.69125 3.73046875 11.5625 C4.00334098 14.03021411 3.76424119 15.65849506 3 18 C0.87491756 14.81237635 0.4979837 12.73487777 0 9 C-0.66 10.32 -1.32 11.64 -2 13 C-3.18771723 9.57056481 -2.80226223 7.62215325 -1.5625 4.25 C-1.27503906 3.45078125 -0.98757813 2.6515625 -0.69140625 1.828125 C-0.46324219 1.22484375 -0.23507812 0.6215625 0 0 Z " fill="#1378A6" transform="translate(315,86)"/>
<path d="M0 0 C3.89006773 1.38780795 6.96558708 3.2152227 10.3125 5.625 C11.19550781 6.25664062 12.07851563 6.88828125 12.98828125 7.5390625 C13.98408203 8.26222656 13.98408203 8.26222656 15 9 C11.90279155 9.87840996 10.09354597 9.99435406 7 9 C7 8.01 7 7.02 7 6 C4.03 5.67 1.06 5.34 -2 5 C-1.34 3.35 -0.68 1.7 0 0 Z " fill="#08A3D6" transform="translate(433,268)"/>
<path d="M0 0 C4.5073626 0.53027795 7.4539073 2.19611275 11 5 C11 5.99 11 6.98 11 8 C11.66 8.33 12.32 8.66 13 9 C12.01 9.33 11.02 9.66 10 10 C9.01 9.01 8.02 8.02 7 7 C6.01 7.33 5.02 7.66 4 8 C4 7.34 4 6.68 4 6 C3.34 6 2.68 6 2 6 C1.34 4.02 0.68 2.04 0 0 Z " fill="#0C9DD5" transform="translate(411,254)"/>
<path d="M0 0 C0.33 0.66 0.66 1.32 1 2 C-1.10665848 6.60831544 -4.82044388 11.10576974 -9 14 C-10.32 13.67 -11.64 13.34 -13 13 C-8.71 8.71 -4.42 4.42 0 0 Z " fill="#012131" transform="translate(541,342)"/>
<path d="M0 0 C-3.40853344 1.53955367 -6.82793443 3.05329284 -10.25 4.5625 C-11.21808594 5.00013672 -12.18617188 5.43777344 -13.18359375 5.88867188 C-14.11816406 6.29794922 -15.05273438 6.70722656 -16.015625 7.12890625 C-17.30388184 7.70233765 -17.30388184 7.70233765 -18.61816406 8.28735352 C-21.2268864 9.06788452 -22.47671776 8.92196851 -25 8 C-22.33846181 5.33846181 -19.64481431 4.84195752 -16.09375 3.78125 C-13.82170857 3.09857013 -13.82170857 3.09857013 -12 1 C-9.94140625 0.33203125 -9.94140625 0.33203125 -7.5625 -0.1875 C-6.78003906 -0.36667969 -5.99757812 -0.54585938 -5.19140625 -0.73046875 C-3 -1 -3 -1 0 0 Z " fill="#00091E" transform="translate(166,285)"/>
<path d="M0 0 C1.89939738 1.89939738 2.75995069 3.26251214 3.9453125 5.625 C4.29980469 6.33140625 4.65429688 7.0378125 5.01953125 7.765625 C5.56673828 8.87164062 5.56673828 8.87164062 6.125 10 C6.49753906 10.73734375 6.87007813 11.4746875 7.25390625 12.234375 C10 17.7466804 10 17.7466804 10 20 C9.34 20 8.68 20 8 20 C8 19.34 8 18.68 8 18 C7.01 17.67 6.02 17.34 5 17 C4.87625 16.195625 4.7525 15.39125 4.625 14.5625 C4.41875 13.716875 4.2125 12.87125 4 12 C3.34 11.67 2.68 11.34 2 11 C0.68254143 7.12081644 0 4.11624135 0 0 Z " fill="#0D74A0" transform="translate(334,149)"/>
<path d="M0 0 C0.74609375 1.734375 0.74609375 1.734375 1 4 C-0.65234375 6.140625 -0.65234375 6.140625 -2.9375 8.25 C-3.68902344 8.95640625 -4.44054687 9.6628125 -5.21484375 10.390625 C-5.80394531 10.92171875 -6.39304687 11.4528125 -7 12 C-7.33 10.68 -7.66 9.36 -8 8 C-7.34 8 -6.68 8 -6 8 C-6.061875 7.05125 -6.12375 6.1025 -6.1875 5.125 C-6.125625 4.09375 -6.06375 3.0625 -6 2 C-3 0 -3 0 0 0 Z " fill="#0BB2EA" transform="translate(568,311)"/>
<path d="M0 0 C-0.99 0.33 -1.98 0.66 -3 1 C-3 1.66 -3 2.32 -3 3 C-4.4609375 4.5078125 -4.4609375 4.5078125 -6.375 6.125 C-7.00148438 6.66382813 -7.62796875 7.20265625 -8.2734375 7.7578125 C-10 9 -10 9 -12 9 C-12.33 9.66 -12.66 10.32 -13 11 C-13 9.35 -13 7.7 -13 6 C-12.34 6 -11.68 6 -11 6 C-11 5.34 -11 4.68 -11 4 C-10.01 4 -9.02 4 -8 4 C-7.8453125 3.0409375 -7.8453125 3.0409375 -7.6875 2.0625 C-7.460625 1.381875 -7.23375 0.70125 -7 0 C-3.86650268 -1.04449911 -3.01031744 -0.93423645 0 0 Z " fill="#0B84B2" transform="translate(378,401)"/>
<path d="M0 0 C0 5.58038762 -3.79936484 9.06011233 -7.40234375 12.9609375 C-7.92957031 13.30382812 -8.45679688 13.64671875 -9 14 C-10.32 13.67 -11.64 13.34 -13 13 C-8.71 8.71 -4.42 4.42 0 0 Z " fill="#01263C" transform="translate(527,356)"/>
<path d="M0 0 C1.32 0.33 2.64 0.66 4 1 C2.1705647 6.82093051 -1.90243744 10.77154371 -7 14 C-7.99 14 -8.98 14 -10 14 C-9.67 13.01 -9.34 12.02 -9 11 C-8.38125 10.855625 -7.7625 10.71125 -7.125 10.5625 C-4.18130152 9.7832857 -3.54062216 8.59104635 -2 6 C-1.27648573 4.01985568 -0.59734611 2.02178685 0 0 Z " fill="#02B4F1" transform="translate(544,326)"/>
<path d="M0 0 C2 0 2 0 3.625 1.5 C4.07875 1.995 4.5325 2.49 5 3 C5.66 2.34 6.32 1.68 7 1 C7 1.66 7 2.32 7 3 C8.32 3.33 9.64 3.66 11 4 C10.67 5.32 10.34 6.64 10 8 C3.58246347 7.39457203 3.58246347 7.39457203 1.0625 5.6875 C0 4 0 4 0 0 Z " fill="#059AD6" transform="translate(377,225)"/>
<path d="M0 0 C0.66 0.33 1.32 0.66 2 1 C1.52590352 5.31730413 -1.03396703 7.33647461 -4.0625 10.25 C-4.98160156 11.14203125 -5.90070312 12.0340625 -6.84765625 12.953125 C-7.55792969 13.62859375 -8.26820313 14.3040625 -9 15 C-9.63671875 13.16015625 -9.63671875 13.16015625 -10 11 C-7.78412721 8.4042633 -5.51368818 6.37099702 -2.75 4.375 C-0.70287125 3.02627166 -0.70287125 3.02627166 0 0 Z " fill="#0EA5D7" transform="translate(540,338)"/>
<path d="M0 0 C-0.66 1.32 -1.32 2.64 -2 4 C-2.66 3.67 -3.32 3.34 -4 3 C-6.11341394 3.23482377 -8.22647108 3.47420968 -10.3359375 3.7421875 C-14.88503722 4.18242296 -19.43470489 4.07679936 -24 4 C-24 3.67 -24 3.34 -24 3 C-20.75073335 2.49515526 -17.50047901 1.99697406 -14.25 1.5 C-13.32960938 1.35691406 -12.40921875 1.21382813 -11.4609375 1.06640625 C-10.12675781 0.86337891 -10.12675781 0.86337891 -8.765625 0.65625 C-7.94868164 0.53056641 -7.13173828 0.40488281 -6.29003906 0.27539062 C-4 0 -4 0 0 0 Z " fill="#0B396D" transform="translate(121,301)"/>
<path d="M0 0 C0.33 0.66 0.66 1.32 1 2 C-0.25 4.625 -0.25 4.625 -2 7 C-2.99 7 -3.98 7 -5 7 C-5.268125 7.78375 -5.53625 8.5675 -5.8125 9.375 C-7 12 -7 12 -10 14 C-10.66 13.34 -11.32 12.68 -12 12 C-8.04 8.04 -4.08 4.08 0 0 Z " fill="#002539" transform="translate(571,312)"/>
<path d="M0 0 C0.66 0.66 1.32 1.32 2 2 C1.67 2.99 1.34 3.98 1 5 C0.34 5 -0.32 5 -1 5 C-1 6.32 -1 7.64 -1 9 C-3.375 9.625 -3.375 9.625 -6 10 C-6.66 9.34 -7.32 8.68 -8 8 C-5.33333333 5.33333333 -2.66666667 2.66666667 0 0 Z " fill="#04B6FC" transform="translate(561,314)"/>
<path d="M0 0 C0.99 0 1.98 0 3 0 C3 0.99 3 1.98 3 3 C4.32 3.66 5.64 4.32 7 5 C7 6.32 7 7.64 7 9 C3.88742431 9 1.89234315 8.82638376 -1 8 C-0.7525 7.1028125 -0.7525 7.1028125 -0.5 6.1875 C0.1114124 3.88655664 0.1114124 3.88655664 0 1 C0 0.67 0 0.34 0 0 Z " fill="#0698D1" transform="translate(354,192)"/>
<path d="M0 0 C6.6 0 13.2 0 20 0 C18 2 18 2 14.7421875 2.1953125 C13.46601562 2.17210937 12.18984375 2.14890625 10.875 2.125 C8.95300781 2.09792969 8.95300781 2.09792969 6.9921875 2.0703125 C5.51105469 2.03550781 5.51105469 2.03550781 4 2 C4.33 4.31 4.66 6.62 5 9 C4.34 9 3.68 9 3 9 C2.01 6.03 1.02 3.06 0 0 Z " fill="#073B7E" transform="translate(59,307)"/>
<path d="M0 0 C-0.66 0 -1.32 0 -2 0 C-2.33 1.32 -2.66 2.64 -3 4 C-3.70125 3.938125 -4.4025 3.87625 -5.125 3.8125 C-8.65260212 4.04256101 -10.93984351 5.29200568 -14 7 C-14 5 -14 5 -11.8125 2.4375 C-7.86265725 -0.98569705 -4.95164594 -1.65054865 0 0 Z " fill="#09568E" transform="translate(191,275)"/>
<path d="M0 0 C0.33 0.99 0.66 1.98 1 3 C1.66 3 2.32 3 3 3 C3.33 5.97 3.66 8.94 4 12 C3.01 12.66 2.02 13.32 1 14 C0.67 12.02 0.34 10.04 0 8 C-0.66 8 -1.32 8 -2 8 C-1.33333333 5.33333333 -0.66666667 2.66666667 0 0 Z " fill="#0593CB" transform="translate(331,145)"/>
<path d="M0 0 C4.31392226 0.4793247 6.16569547 1.7457985 9 5 C6.29120665 6.35439668 3.99066732 6.06501451 1 6 C-0.0625 4.125 -0.0625 4.125 -1 2 C-0.67 1.34 -0.34 0.68 0 0 Z " fill="#03AFF3" transform="translate(488,296)"/>
<path d="M0 0 C-0.95421808 1.14926266 -1.91352045 2.29430541 -2.875 3.4375 C-3.40867187 4.07558594 -3.94234375 4.71367187 -4.4921875 5.37109375 C-6 7 -6 7 -8 8 C-8.33 6.02 -8.66 4.04 -9 2 C-5.5647952 -0.29013653 -4.014669 -0.17842973 0 0 Z " fill="#0BA7DE" transform="translate(530,353)"/>
<path d="M0 0 C4.02511566 1.21689543 7.59257117 2.49453762 11 5 C11 5.99 11 6.98 11 8 C12.65 8 14.3 8 16 8 C15.67 8.99 15.34 9.98 15 11 C12.69 10.01 10.38 9.02 8 8 C8 7.01 8 6.02 8 5 C7.4225 4.9175 6.845 4.835 6.25 4.75 C3.3840696 3.79468987 2.0009236 2.21530827 0 0 Z " fill="#0D5D90" transform="translate(225,381)"/>
<path d="M0 0 C0 0.99 0 1.98 0 3 C-1.5811292 3.50692692 -3.16501383 4.00526443 -4.75 4.5 C-5.63171875 4.7784375 -6.5134375 5.056875 -7.421875 5.34375 C-10 6 -10 6 -14 6 C-14 5.34 -14 4.68 -14 4 C-12.23141309 3.32739649 -10.46003984 2.66211605 -8.6875 2 C-7.70136719 1.62875 -6.71523438 1.2575 -5.69921875 0.875 C-3 0 -3 0 0 0 Z " fill="#0A91C5" transform="translate(424,374)"/>
<path d="M0 0 C2.31 0.66 4.62 1.32 7 2 C7 2.66 7 3.32 7 4 C6.01 4 5.02 4 4 4 C4 4.66 4 5.32 4 6 C1.03 6 -1.94 6 -5 6 C-4.360625 5.38125 -3.72125 4.7625 -3.0625 4.125 C-0.96116416 2.17402388 -0.96116416 2.17402388 0 0 Z " fill="#01A3E4" transform="translate(438,364)"/>
<path d="M0 0 C0.66 0.33 1.32 0.66 2 1 C1.45660208 5.56454251 0.20536179 8.9728176 -2 13 C-2.33 13 -2.66 13 -3 13 C-3.33 10.36 -3.66 7.72 -4 5 C-3.01 5.33 -2.02 5.66 -1 6 C-1.309375 5.071875 -1.309375 5.071875 -1.625 4.125 C-1.810625 3.073125 -1.810625 3.073125 -2 2 C-1.34 1.34 -0.68 0.68 0 0 Z " fill="#037CBC" transform="translate(317,486)"/>
<path d="M0 0 C1.4920794 3.87940643 0.4325539 6.20373217 -1 10 C-1.54724216 11.62313086 -2.08869929 13.24822118 -2.625 14.875 C-3.08333333 16.25 -3.54166667 17.625 -4 19 C-4.66 19 -5.32 19 -6 19 C-4.47214176 12.40095271 -2.92382423 6.12610791 0 0 Z " fill="#011834" transform="translate(326,471)"/>
<path d="M0 0 C5.94 0.33 11.88 0.66 18 1 C18 1.99 18 2.98 18 4 C15.93728361 3.6889315 13.87483534 3.37608484 11.8125 3.0625 C10.66394531 2.88847656 9.51539063 2.71445312 8.33203125 2.53515625 C5.53674788 2.08620687 2.77066414 1.57917838 0 1 C0 0.67 0 0.34 0 0 Z " fill="#0D4F7D" transform="translate(180,369)"/>
<path d="M0 0 C0 3.4889287 -0.91032861 5.35053319 -2.375 8.5 C-2.81585938 9.4590625 -3.25671875 10.418125 -3.7109375 11.40625 C-5 14 -5 14 -7 17 C-7.66 16.67 -8.32 16.34 -9 16 C-7.63498381 12.33357971 -5.97203048 9.08922939 -3.9375 5.75 C-3.41027344 4.87859375 -2.88304687 4.0071875 -2.33984375 3.109375 C-1 1 -1 1 0 0 Z " fill="#0D6088" transform="translate(281,177)"/>
<path d="M0 0 C0.99 0 1.98 0 3 0 C1.47214176 6.59904729 -0.07617577 12.87389209 -3 19 C-3.33 19 -3.66 19 -4 19 C-4.42559854 14.31841606 -2.83238891 11.25114227 -1 7 C-0.5945897 4.67810464 -0.23927006 2.34484656 0 0 Z " fill="#012740" transform="translate(303,122)"/>
<path d="M0 0 C3 1 3 1 4 3 C5.97888961 3.72693904 7.97954558 4.39816251 10 5 C10 5.33 10 5.66 10 6 C4.72 5.67 -0.56 5.34 -6 5 C-6 4.67 -6 4.34 -6 4 C-2.535 3.505 -2.535 3.505 1 3 C0.67 2.01 0.34 1.02 0 0 Z " fill="#025A9C" transform="translate(186,364)"/>
<path d="M0 0 C7.48291572 6.15034169 7.48291572 6.15034169 10 10 C6.91082652 9.6567585 5.22894021 9.17806461 2.75 7.25 C0.82193539 4.77105979 0.3432415 3.08917348 0 0 Z " fill="#00071B" transform="translate(77,332)"/>
<path d="M0 0 C-0.639375 0.268125 -1.27875 0.53625 -1.9375 0.8125 C-4.33131686 1.88667752 -4.33131686 1.88667752 -5 5 C-7.4375 6.75 -7.4375 6.75 -10 8 C-10.66 7.67 -11.32 7.34 -12 7 C-9.51741875 1.89691633 -5.90709924 -1.96903308 0 0 Z " fill="#0866A0" transform="translate(214,259)"/>
<path d="M0 0 C0.6875 1.8125 0.6875 1.8125 1 4 C-0.3125 5.5 -0.3125 5.5 -2 7 C-2.28875 7.680625 -2.5775 8.36125 -2.875 9.0625 C-4.41329016 11.71177751 -6.15111923 12.10035344 -9 13 C-8.38125 12.278125 -7.7625 11.55625 -7.125 10.8125 C-5.16333647 8.21618062 -4.04684 6.05328334 -3 3 C-2.34 3 -1.68 3 -1 3 C-0.67 2.01 -0.34 1.02 0 0 Z " fill="#011326" transform="translate(361,415)"/>
<path d="M0 0 C0.66 0.33 1.32 0.66 2 1 C2 3.64 2 6.28 2 9 C-0.31 9.33 -2.62 9.66 -5 10 C-4.1875 8.0625 -4.1875 8.0625 -3 6 C-2.01 5.67 -1.02 5.34 0 5 C0 3.35 0 1.7 0 0 Z " fill="#0191D5" transform="translate(377,391)"/>
<path d="M0 0 C1.5778125 0.2475 1.5778125 0.2475 3.1875 0.5 C9.10578512 1.25711395 15.04521179 1.08169679 21 1 C21 1.33 21 1.66 21 2 C14.29980211 2.70132913 7.73742646 3.11044961 1 3 C0.67 2.01 0.34 1.02 0 0 Z " fill="#09437A" transform="translate(115,366)"/>
<path d="M0 0 C3.48872415 1.16290805 4.09976864 2.13967609 6.1875 5.0625 C6.71730469 5.79597656 7.24710937 6.52945312 7.79296875 7.28515625 C8.19128906 7.85105469 8.58960937 8.41695313 9 9 C2.07692308 7 2.07692308 7 0 4 C0 2.68 0 1.36 0 0 Z " fill="#00081F" transform="translate(62,317)"/>
<path d="M0 0 C4.36087656 0 5.58673752 0.46193303 9 3 C10.8125 5.6875 10.8125 5.6875 12 8 C9.14940657 6.61964507 6.44119096 5.10703513 3.75 3.4375 C3.04359375 3.00308594 2.3371875 2.56867188 1.609375 2.12109375 C1.07828125 1.75113281 0.5471875 1.38117188 0 1 C0 0.67 0 0.34 0 0 Z " fill="#0A5584" transform="translate(237,390)"/>
<path d="M0 0 C3.37462715 0.54723683 5.08235 1.0549 8 3 C10.64017635 3.81779841 13.30270591 4.3809489 16 5 C12.68774566 6.10408478 11.3529277 5.88103713 8 5.1875 C7.13375 5.01605469 6.2675 4.84460938 5.375 4.66796875 C3 4 3 4 0 2 C0 1.34 0 0.68 0 0 Z " fill="#0D80A9" transform="translate(479,291)"/>
<path d="M0 0 C1.1446875 0.12375 1.1446875 0.12375 2.3125 0.25 C1.5625 2.1875 1.5625 2.1875 0.3125 4.25 C-1.8125 5 -1.8125 5 -3.6875 5.25 C-4.0175 6.57 -4.3475 7.89 -4.6875 9.25 C-5.3475 9.25 -6.0075 9.25 -6.6875 9.25 C-6.04078163 4.59362773 -5.23074478 0.48658091 0 0 Z " fill="#02A4E9" transform="translate(430.6875,267.75)"/>
<path d="M0 0 C0.66 0.33 1.32 0.66 2 1 C0.3125 3.5 0.3125 3.5 -2 6 C-4.75 6.3125 -4.75 6.3125 -7 6 C-7.33 6.99 -7.66 7.98 -8 9 C-8.66 8.67 -9.32 8.34 -10 8 C-6.91367389 4.7373124 -4.06516496 1.97764782 0 0 Z " fill="#086A9D" transform="translate(252,221)"/>
<path d="M0 0 C3.25524265 3.02272532 5.61820737 6.25718301 8 10 C7.67 10.66 7.34 11.32 7 12 C6.01 11.34 5.02 10.68 4 10 C4 9.01 4 8.02 4 7 C2.68 6.67 1.36 6.34 0 6 C0 4.02 0 2.04 0 0 Z " fill="#0F7DAA" transform="translate(353,185)"/>
<path d="M0 0 C-3.51760602 3.51760602 -8.12842961 3.05502509 -12.875 3.0625 C-14.25006609 3.0466164 -15.62511713 3.02749766 -17 3 C-17 2.67 -17 2.34 -17 2 C-11.16200408 0.30167391 -6.06892629 -0.25287193 0 0 Z " fill="#084C86" transform="translate(138,299)"/>
<path d="M0 0 C0 0.66 0 1.32 0 2 C-0.99 2 -1.98 2 -3 2 C-3.33 2.99 -3.66 3.98 -4 5 C-4.66 5 -5.32 5 -6 5 C-6 5.66 -6 6.32 -6 7 C-8.31 7.33 -10.62 7.66 -13 8 C-10.83676753 5.68757908 -8.62352196 3.9843604 -5.9375 2.3125 C-5.24527344 1.87550781 -4.55304688 1.43851562 -3.83984375 0.98828125 C-2 0 -2 0 0 0 Z " fill="#0C486F" transform="translate(198,267)"/>
<path d="M0 0 C0.66 0 1.32 0 2 0 C0.43358249 4.30764815 -1.68336156 8.06171464 -4 12 C-4.6875 10.375 -4.6875 10.375 -5 8 C-3.65194009 4.79033355 -2.46598569 2.46598569 0 0 Z " fill="#00091B" transform="translate(281,173)"/>
<path d="M0 0 C0.99 0.33 1.98 0.66 3 1 C1.7260411 3.03833424 0.38938077 5.03852126 -1 7 C-1.66 7 -2.32 7 -3 7 C-3.66 7.66 -4.32 8.32 -5 9 C-4.25 3.25 -4.25 3.25 -2 1 C-1.67 1.33 -1.34 1.66 -1 2 C-0.67 1.34 -0.34 0.68 0 0 Z " fill="#018CD0" transform="translate(294,160)"/>
<path d="M0 0 C0.66 0 1.32 0 2 0 C1.67 1.98 1.34 3.96 1 6 C0.34 6 -0.32 6 -1 6 C-1.33 7.65 -1.66 9.3 -2 11 C-2.99 11.33 -3.98 11.66 -5 12 C-3.41037341 7.96479403 -1.71767682 3.98188718 0 0 Z " fill="#0C6590" transform="translate(296,147)"/>
<path d="M0 0 C0 2.97 0 5.94 0 9 C-0.99 9.33 -1.98 9.66 -3 10 C-4.16909807 6.49270578 -3.85056945 4.55692677 -3 1 C-1 0 -1 0 0 0 Z " fill="#0494DA" transform="translate(325,128)"/>
<path d="M0 0 C0.66 0 1.32 0 2 0 C2.50806447 1.72681437 3.00610467 3.45657979 3.5 5.1875 C3.7784375 6.15042969 4.056875 7.11335938 4.34375 8.10546875 C4.96677608 10.85345876 5.12302812 13.19598416 5 16 C3.53508849 13.20392978 2.37754078 10.42993234 1.375 7.4375 C1.11460937 6.67308594 0.85421875 5.90867187 0.5859375 5.12109375 C0 3 0 3 0 0 Z " fill="#0F6C9A" transform="translate(306,474)"/>
<path d="M0 0 C1.32 0.33 2.64 0.66 4 1 C3.02433888 2.16959987 2.044375 3.33561177 1.0625 4.5 C0.51722656 5.1496875 -0.02804687 5.799375 -0.58984375 6.46875 C-1.05519531 6.9740625 -1.52054688 7.479375 -2 8 C-2.33 8 -2.66 8 -3 8 C-3 6.35 -3 4.7 -3 3 C-2.01 2.67 -1.02 2.34 0 2 C0 1.34 0 0.68 0 0 Z " fill="#0FA3DC" transform="translate(518,360)"/>
<path d="M0 0 C5.67276511 -0.29341888 8.99067246 -0.00559652 14 3 C10.45332822 4.25127906 8.27746562 3.72285053 4.75 2.5625 C3.85796875 2.27503906 2.9659375 1.98757813 2.046875 1.69140625 C1.37140625 1.46324219 0.6959375 1.23507812 0 1 C0 0.67 0 0.34 0 0 Z " fill="#022139" transform="translate(503,298)"/>
<path d="M0 0 C-0.33 0.66 -0.66 1.32 -1 2 C-3.70599842 2.47597366 -6.33595404 2.84093629 -9.0625 3.125 C-9.82111328 3.21136719 -10.57972656 3.29773438 -11.36132812 3.38671875 C-13.23996986 3.59939517 -15.11988636 3.80075459 -17 4 C-14.23719462 2.15812975 -12.19292174 1.27751723 -9.0625 0.3125 C-7.78052734 -0.09548828 -7.78052734 -0.09548828 -6.47265625 -0.51171875 C-3.89489426 -1.02075548 -2.45550663 -0.84888744 0 0 Z " fill="#0C3F6B" transform="translate(139,297)"/>
<path d="M0 0 C-3.0469629 1.69433918 -5.82821466 2.49467112 -9.25 3.125 C-10.58804688 3.37636719 -10.58804688 3.37636719 -11.953125 3.6328125 C-12.62859375 3.75398438 -13.3040625 3.87515625 -14 4 C-14 3.34 -14 2.68 -14 2 C-9.35150485 -0.3992233 -5.08913926 -0.19957409 0 0 Z " fill="#000A20" transform="translate(139,295)"/>
<path d="M0 0 C4.5076467 0.53031138 7.41954788 2.25221116 11 5 C11 5.66 11 6.32 11 7 C6.89188572 5.55007731 3.53144334 3.54592427 0 1 C0 0.67 0 0.34 0 0 Z " fill="#022238" transform="translate(429,264)"/>
<path d="M0 0 C1.31611677 0.95336021 2.62778961 1.91285774 3.9375 2.875 C4.66839844 3.40867187 5.39929688 3.94234375 6.15234375 4.4921875 C8 6 8 6 9 8 C2.25 6.25 2.25 6.25 0 4 C0 2.68 0 1.36 0 0 Z " fill="#011225" transform="translate(258,406)"/>
<path d="M0 0 C1.98 0 3.96 0 6 0 C5.375 2.875 5.375 2.875 4 6 C0.875 7.375 0.875 7.375 -2 8 C-0.35 6.02 1.3 4.04 3 2 C2.01 1.34 1.02 0.68 0 0 Z " fill="#072F47" transform="translate(574,304)"/>
<path d="M0 0 C5.19209404 -0.21192221 9.126739 0.4087311 14 2 C10.375 5 10.375 5 7 5 C6.67 3.68 6.34 2.36 6 1 C4.02 1 2.04 1 0 1 C0 0.67 0 0.34 0 0 Z " fill="#06AADE" transform="translate(535,305)"/>
<path d="M0 0 C5.75 -0.125 5.75 -0.125 8 1 C8 1.66 8 2.32 8 3 C5.69 3.33 3.38 3.66 1 4 C0.67 2.68 0.34 1.36 0 0 Z " fill="#00B0FA" transform="translate(503,302)"/>
<path d="M0 0 C-1 1.5 -1 1.5 -3 3 C-5.71846235 3.27345479 -8.25677199 3.13491285 -11 3 C-7.6562111 -0.84535724 -4.83651161 -1.55459302 0 0 Z " fill="#08568D" transform="translate(162,290)"/>
<path d="M0 0 C1.32 0 2.64 0 4 0 C4 0.66 4 1.32 4 2 C3.34 2 2.68 2 2 2 C2.33 3.98 2.66 5.96 3 8 C1.02 6.35 -0.96 4.7 -3 3 C-2.01 2.67 -1.02 2.34 0 2 C0 1.34 0 0.68 0 0 Z " fill="#011323" transform="translate(396,232)"/>
<path d="M0 0 C3.28788824 3.11016455 5.83735988 6.01618925 8 10 C7.01 10 6.02 10 5 10 C4.67 9.34 4.34 8.68 4 8 C3.01 7.67 2.02 7.34 1 7 C0.67 4.69 0.34 2.38 0 0 Z " fill="#1081AE" transform="translate(371,210)"/>
<path d="M0 0 C2.31 0.66 4.62 1.32 7 2 C7 2.99 7 3.98 7 5 C8.32 5.66 9.64 6.32 11 7 C10.67 7.66 10.34 8.32 10 9 C8.33043913 7.69118353 6.66441696 6.37785174 5 5.0625 C4.071875 4.33160156 3.14375 3.60070312 2.1875 2.84765625 C1.465625 2.23792969 0.74375 1.62820313 0 1 C0 0.67 0 0.34 0 0 Z " fill="#115881" transform="translate(256,404)"/>
<path d="M0 0 C0.33 0.66 0.66 1.32 1 2 C2.32 1.67 3.64 1.34 5 1 C5 4 5 4 3.6875 5.6875 C2 7 2 7 -1 7 C-1.04254356 5.00045254 -1.04080783 2.99958364 -1 1 C-0.67 0.67 -0.34 0.34 0 0 Z " fill="#00B0F6" transform="translate(513,358)"/>
<path d="M0 0 C1.14926266 0.95421808 2.29430541 1.91352045 3.4375 2.875 C4.07558594 3.40867187 4.71367188 3.94234375 5.37109375 4.4921875 C7 6 7 6 8 8 C5.6875 7.8125 5.6875 7.8125 3 7 C0 2.96551724 0 2.96551724 0 0 Z " fill="#00081C" transform="translate(93,348)"/>
<path d="M0 0 C0 3 0 3 -1 6 C-3.87384077 7.9417843 -6.89931133 9.45957258 -10 11 C-6.79239749 7.19364503 -3.59253891 3.45436433 0 0 Z " fill="#023145" transform="translate(558,325)"/>
<path d="M0 0 C2.64 0 5.28 0 8 0 C8 0.66 8 1.32 8 2 C8.99 2.33 9.98 2.66 11 3 C8.36749612 4.31625194 7.19820944 3.74813658 4.375 3.0625 C3.14910156 2.77052734 3.14910156 2.77052734 1.8984375 2.47265625 C0.95871094 2.23869141 0.95871094 2.23869141 0 2 C0 1.34 0 0.68 0 0 Z " fill="#07A8E7" transform="translate(471,291)"/>
<path d="M0 0 C1.32 0.33 2.64 0.66 4 1 C4.33 2.32 4.66 3.64 5 5 C4.01 5.33 3.02 5.66 2 6 C1.34 5.67 0.68 5.34 0 5 C0 3.35 0 1.7 0 0 Z " fill="#0595E2" transform="translate(364,208)"/>
<path d="M0 0 C1.32 0 2.64 0 4 0 C4.33 1.32 4.66 2.64 5 4 C2.69 4.33 0.38 4.66 -2 5 C-1.34 3.35 -0.68 1.7 0 0 Z " fill="#0197DD" transform="translate(397,381)"/>
<path d="M0 0 C1.12894876 0.93274109 2.25300876 1.87140122 3.375 2.8125 C4.00148438 3.33457031 4.62796875 3.85664063 5.2734375 4.39453125 C7 6 7 6 9 9 C8.4225 8.690625 7.845 8.38125 7.25 8.0625 C5.15705816 7.07416636 3.25464725 6.4831387 1 6 C0.67 4.02 0.34 2.04 0 0 Z " fill="#000B22" transform="translate(103,358)"/>
<path d="M0 0 C0 3 0 3 -2.3125 5.5625 C-5 8 -5 8 -8 10 C-8 9.01 -8 8.02 -8 7 C-7.34 7 -6.68 7 -6 7 C-6 5.68 -6 4.36 -6 3 C-5.195625 2.690625 -4.39125 2.38125 -3.5625 2.0625 C-1.10919595 1.23664655 -1.10919595 1.23664655 0 0 Z " fill="#03223D" transform="translate(259,209)"/>
<path d="M0 0 C0 3.52032428 -0.70351351 4.4385343 -3 7 C-3.66 7 -4.32 7 -5 7 C-5.33 7.66 -5.66 8.32 -6 9 C-5.67 6.69 -5.34 4.38 -5 2 C-4.360625 1.855625 -3.72125 1.71125 -3.0625 1.5625 C-1.02454854 1.18992819 -1.02454854 1.18992819 0 0 Z " fill="#021F34" transform="translate(272,191)"/>
<path d="M0 0 C1.32 0 2.64 0 4 0 C3.60196439 2.88575819 3.20990931 3.82189513 0.9375 5.75 C0.298125 6.1625 -0.34125 6.575 -1 7 C-0.67 4.69 -0.34 2.38 0 0 Z " fill="#0BB5DE" transform="translate(570,307)"/>
<path d="M0 0 C4.03520597 1.58962659 8.01811282 3.28232318 12 5 C12 5.33 12 5.66 12 6 C10.02 6 8.04 6 6 6 C6 5.34 6 4.68 6 4 C5.071875 3.7834375 5.071875 3.7834375 4.125 3.5625 C2 3 2 3 0 2 C0 1.34 0 0.68 0 0 Z " fill="#107EA9" transform="translate(459,282)"/>
<path d="M0 0 C0 0.66 0 1.32 0 2 C-3.03525486 4.02350324 -4.19426202 4.32124018 -7.6875 4.625 C-8.49574219 4.69976562 -9.30398437 4.77453125 -10.13671875 4.8515625 C-11.05904297 4.92503906 -11.05904297 4.92503906 -12 5 C-9.9330412 2.9330412 -8.69369158 2.35542451 -6 1.375 C-5.29875 1.11460937 -4.5975 0.85421875 -3.875 0.5859375 C-2 0 -2 0 0 0 Z " fill="#074169" transform="translate(166,285)"/>
<path d="M0 0 C2.91517292 1.07401108 4.77810176 1.77810176 7 4 C2.545 4.495 2.545 4.495 -2 5 C-1.34 3.35 -0.68 1.7 0 0 Z " fill="#1198CF" transform="translate(433,268)"/>
<path d="M0 0 C0.33 1.32 0.66 2.64 1 4 C-1.67478244 5.6627026 -3.9995144 6.99983813 -7 8 C-7 7.34 -7 6.68 -7 6 C-5.46875 4.4921875 -5.46875 4.4921875 -3.5 2.875 C-2.8503125 2.33617187 -2.200625 1.79734375 -1.53125 1.2421875 C-1.0259375 0.83226562 -0.520625 0.42234375 0 0 Z " fill="#06567F" transform="translate(230,240)"/>
<path d="M0 0 C0.99 0.33 1.98 0.66 3 1 C2.0022242 3.99332739 1.2477975 4.94766315 -1 7 C-2 6 -2 6 -2.0625 3.4375 C-2.041875 2.633125 -2.02125 1.82875 -2 1 C-1.34 0.67 -0.68 0.34 0 0 Z " fill="#038FD7" transform="translate(305,135)"/>
<path d="M0 0 C4.09305456 1.65296434 7.58983503 3.13546142 11 6 C7.36029133 6.42820102 5.95430537 5.97413512 2.6875 4.125 C1.800625 3.42375 0.91375 2.7225 0 2 C0 1.34 0 0.68 0 0 Z " fill="#000B1D" transform="translate(224,384)"/>
<path d="M0 0 C-1.28813342 0.83878455 -2.58063256 1.67086783 -3.875 2.5 C-4.59429687 2.9640625 -5.31359375 3.428125 -6.0546875 3.90625 C-8 5 -8 5 -10 5 C-9.01906046 2.54765115 -8.31296172 1.2190732 -6.125 -0.3125 C-3.62654486 -1.12082372 -2.47071024 -0.71847013 0 0 Z " fill="#00091B" transform="translate(188,273)"/>
<path d="M0 0 C6.70212766 1.93617021 6.70212766 1.93617021 9 5 C9 5.66 9 6.32 9 7 C5.18315774 5.44499019 2.80804268 2.96404505 0 0 Z " fill="#032B42" transform="translate(413,252)"/>
<path d="M0 0 C2.475 0.495 2.475 0.495 5 1 C5.103125 1.639375 5.20625 2.27875 5.3125 2.9375 C5.539375 3.618125 5.76625 4.29875 6 5 C6.99 5.33 7.98 5.66 9 6 C8.34 6.66 7.68 7.32 7 8 C5.83035398 6.8572081 4.66435444 5.71068285 3.5 4.5625 C2.8503125 3.92441406 2.200625 3.28632813 1.53125 2.62890625 C0 1 0 1 0 0 Z " fill="#00132B" transform="translate(377,217)"/>
<path d="M0 0 C0.33 0.99 0.66 1.98 1 3 C1.66 3 2.32 3 3 3 C3.33 2.01 3.66 1.02 4 0 C3.67 2.97 3.34 5.94 3 9 C2.34 8.67 1.68 8.34 1 8 C0.40644386 5.35139573 0.25790731 2.70802678 0 0 Z " fill="#1A658E" transform="translate(313,500)"/>
<path d="M0 0 C1.32 0.33 2.64 0.66 4 1 C3.02433888 2.16959987 2.044375 3.33561177 1.0625 4.5 C0.51722656 5.1496875 -0.02804687 5.799375 -0.58984375 6.46875 C-1.05519531 6.9740625 -1.52054687 7.479375 -2 8 C-2.33 8 -2.66 8 -3 8 C-3 6.35 -3 4.7 -3 3 C-1.68 3 -0.36 3 1 3 C0.67 2.01 0.34 1.02 0 0 Z " fill="#0C7EB0" transform="translate(358,414)"/>
<path d="M0 0 C0.66 0 1.32 0 2 0 C2 0.66 2 1.32 2 2 C3.32 2 4.64 2 6 2 C6 3.98 6 5.96 6 8 C1.125 3.375 1.125 3.375 0 0 Z " fill="#001225" transform="translate(360,194)"/>
<path d="M0 0 C0.33 0 0.66 0 1 0 C1 2.31 1 4.62 1 7 C0.01 7.495 0.01 7.495 -1 8 C-1.66 8.99 -2.32 9.98 -3 11 C-2.53199289 6.94393835 -2.12046792 3.53411321 0 0 Z " fill="#1182B1" transform="translate(301,137)"/>
<path d="M0 0 C0.66 0.33 1.32 0.66 2 1 C0.8125 3.5 0.8125 3.5 -1 6 C-3.6875 6.3125 -3.6875 6.3125 -6 6 C-4 4 -2 2 0 0 Z " fill="#022135" transform="translate(383,396)"/>
<path d="M0 0 C0.66 1.32 1.32 2.64 2 4 C0.35 4.33 -1.3 4.66 -3 5 C-3 3.68 -3 2.36 -3 1 C-2.01 0.67 -1.02 0.34 0 0 Z " fill="#0290D5" transform="translate(384,391)"/>
<path d="M0 0 C0.99 0.33 1.98 0.66 3 1 C3.6875 3.0625 3.6875 3.0625 4 5 C5.98 5 7.96 5 10 5 C10 5.33 10 5.66 10 6 C3.539801 6.36567164 3.539801 6.36567164 1.0625 4.6875 C0 3 0 3 0 0 Z " fill="#0C3864" transform="translate(112,364)"/>
<path d="M0 0 C1.32 0.33 2.64 0.66 4 1 C4 1.66 4 2.32 4 3 C5.32 3.66 6.64 4.32 8 5 C7.67 5.99 7.34 6.98 7 8 C5.83035398 6.8572081 4.66435444 5.71068285 3.5 4.5625 C2.8503125 3.92441406 2.200625 3.28632813 1.53125 2.62890625 C0 1 0 1 0 0 Z " fill="#0D3462" transform="translate(79,333)"/>
<path d="M0 0 C0.99 0.33 1.98 0.66 3 1 C1.35 2.65 -0.3 4.3 -2 6 C-2.66 5.34 -3.32 4.68 -4 4 C-2.68 2.68 -1.36 1.36 0 0 Z " fill="#001E29" transform="translate(563,320)"/>
<path d="M0 0 C0.66 0 1.32 0 2 0 C1.67 1.32 1.34 2.64 1 4 C-1.31 4.66 -3.62 5.32 -6 6 C-4 4 -2 2 0 0 Z " fill="#04557E" transform="translate(214,254)"/>
<path d="M0 0 C1.33332095 2.6666419 0.67102033 4.16680303 0 7 C-1.65 7 -3.3 7 -5 7 C-3.88820837 3.66462511 -2.52588702 2.36292656 0 0 Z " fill="#0B729F" transform="translate(271,194)"/>
<path d="M0 0 C2 3 2 3 1.75 5.625 C1.5025 6.40875 1.255 7.1925 1 8 C0.01 8.495 0.01 8.495 -1 9 C-1.125 2.25 -1.125 2.25 0 0 Z " fill="#0297DC" transform="translate(333,150)"/>
<path d="M0 0 C2.475 0.495 2.475 0.495 5 1 C3.515 4.465 3.515 4.465 2 8 C1.67 8 1.34 8 1 8 C0.67 5.36 0.34 2.72 0 0 Z " fill="#0B77AB" transform="translate(333,445)"/>
<path d="M0 0 C3.91211733 1.15585285 6.8745041 2.35534962 10 5 C7.8125 5.3125 7.8125 5.3125 5 5 C2.1875 2.5 2.1875 2.5 0 0 Z " fill="#0664A0" transform="translate(225,381)"/>
<path d="M0 0 C0.66 0.33 1.32 0.66 2 1 C0.25 3.0625 0.25 3.0625 -2 5 C-4.25 4.75 -4.25 4.75 -6 4 C-3.94766315 1.7522025 -2.99332739 0.9977758 0 0 Z " fill="#011A1F" transform="translate(520,365)"/>
<path d="M0 0 C0.33 0.66 0.66 1.32 1 2 C3.01669827 3.13350534 3.01669827 3.13350534 5 4 C5 5.32 5 6.64 5 8 C4.34 8 3.68 8 3 8 C2.71125 7.38125 2.4225 6.7625 2.125 6.125 C1.06279958 3.86674235 1.06279958 3.86674235 -1 2 C-0.67 1.34 -0.34 0.68 0 0 Z " fill="#063F7E" transform="translate(84,333)"/>
<path d="M0 0 C3.63 0 7.26 0 11 0 C10.67 0.99 10.34 1.98 10 3 C6.7 2.34 3.4 1.68 0 1 C0 0.67 0 0.34 0 0 Z " fill="#004484" transform="translate(86,307)"/>
<path d="M0 0 C0.99 0 1.98 0 3 0 C3.99 1.98 4.98 3.96 6 6 C5.01 6.495 5.01 6.495 4 7 C2 6 2 6 0.875 2.9375 C0.58625 1.968125 0.2975 0.99875 0 0 Z " fill="#03A1EA" transform="translate(411,254)"/>
<path d="M0 0 C0.33 0.99 0.66 1.98 1 3 C-0.65 4.65 -2.3 6.3 -4 8 C-3.50168276 4.31245243 -2.89932357 2.39509338 0 0 Z " fill="#0678B9" transform="translate(244,229)"/>
<path d="M0 0 C0.99 0 1.98 0 3 0 C3 1.98 3 3.96 3 6 C1.02 6.99 1.02 6.99 -1 8 C-0.7525 7.1028125 -0.7525 7.1028125 -0.5 6.1875 C0.1114124 3.88655664 0.1114124 3.88655664 0 1 C0 0.67 0 0.34 0 0 Z " fill="#019ED8" transform="translate(354,192)"/>
<path d="M0 0 C2.79872437 2.52788007 4.45773019 4.20411134 5 8 C2 7 2 7 0 4 C0 2.68 0 1.36 0 0 Z " fill="#021C39" transform="translate(289,442)"/>
<path d="M0 0 C3.24299151 2.38957269 5.50902342 4.2047869 7 8 C5.1875 7.8125 5.1875 7.8125 3 7 C0 2.82142857 0 2.82142857 0 0 Z " fill="#022640" transform="translate(271,418)"/>
<path d="M0 0 C2.02054804 1.64169528 4.02043058 3.30911778 6 5 C6 5.33 6 5.66 6 6 C4.35 6 2.7 6 1 6 C0.67 4.02 0.34 2.04 0 0 Z " fill="#000A1D" transform="translate(71,326)"/>
<path d="M0 0 C2.475 0.495 2.475 0.495 5 1 C4.67 1.99 4.34 2.98 4 4 C2.68 4 1.36 4 0 4 C0 2.68 0 1.36 0 0 Z " fill="#029BEA" transform="translate(396,242)"/>
</svg>
